<?xml version="1.0" encoding="utf-8" standalone="no"?>
<!DOCTYPE svg PUBLIC "-//W3C//DTD SVG 1.1//EN"
  "http://www.w3.org/Graphics/SVG/1.1/DTD/svg11.dtd">
<svg xmlns:xlink="http://www.w3.org/1999/xlink" width="460.8pt" height="345.6pt" viewBox="0 0 460.8 345.6" xmlns="http://www.w3.org/2000/svg" version="1.1">
 <metadata>
  <rdf:RDF xmlns:dc="http://purl.org/dc/elements/1.1/" xmlns:cc="http://creativecommons.org/ns#" xmlns:rdf="http://www.w3.org/1999/02/22-rdf-syntax-ns#">
   <cc:Work>
    <dc:type rdf:resource="http://purl.org/dc/dcmitype/StillImage"/>
    <dc:date>2023-11-07T03:42:02.353741</dc:date>
    <dc:format>image/svg+xml</dc:format>
    <dc:creator>
     <cc:Agent>
      <dc:title>Matplotlib v3.8.1, https://matplotlib.org/</dc:title>
     </cc:Agent>
    </dc:creator>
   </cc:Work>
  </rdf:RDF>
 </metadata>
 <defs>
  <style type="text/css">*{stroke-linejoin: round; stroke-linecap: butt}</style>
 </defs>
 <g id="figure_1">
  <g id="patch_1">
   <path d="M 0 345.6 
L 460.8 345.6 
L 460.8 0 
L 0 0 
z
" style="fill: #ffffff"/>
  </g>
  <g id="axes_1">
   <g id="patch_2">
    <path d="M 57.6 307.584 
L 414.72 307.584 
L 414.72 41.472 
L 57.6 41.472 
z
" style="fill: #ffffff"/>
   </g>
   <g id="matplotlib.axis_1">
    <g id="xtick_1">
     <g id="line2d_1">
      <defs>
       <path id="m6dcfae8874" d="M 0 0 
L 0 3.5 
" style="stroke: #000000; stroke-width: 0.8"/>
      </defs>
      <g>
       <use xlink:href="#m6dcfae8874" x="73.832727" y="307.584" style="stroke: #000000; stroke-width: 0.8"/>
      </g>
     </g>
     <g id="text_1">
      <!-- 0 -->
      <g transform="translate(70.651477 322.182437) scale(0.1 -0.1)">
       <defs>
        <path id="DejaVuSans-30" d="M 2034 4250 
Q 1547 4250 1301 3770 
Q 1056 3291 1056 2328 
Q 1056 1369 1301 889 
Q 1547 409 2034 409 
Q 2525 409 2770 889 
Q 3016 1369 3016 2328 
Q 3016 3291 2770 3770 
Q 2525 4250 2034 4250 
z
M 2034 4750 
Q 2819 4750 3233 4129 
Q 3647 3509 3647 2328 
Q 3647 1150 3233 529 
Q 2819 -91 2034 -91 
Q 1250 -91 836 529 
Q 422 1150 422 2328 
Q 422 3509 836 4129 
Q 1250 4750 2034 4750 
z
" transform="scale(0.015625)"/>
       </defs>
       <use xlink:href="#DejaVuSans-30"/>
      </g>
     </g>
    </g>
    <g id="xtick_2">
     <g id="line2d_2">
      <g>
       <use xlink:href="#m6dcfae8874" x="137.241818" y="307.584" style="stroke: #000000; stroke-width: 0.8"/>
      </g>
     </g>
     <g id="text_2">
      <!-- 200 -->
      <g transform="translate(127.698068 322.182437) scale(0.1 -0.1)">
       <defs>
        <path id="DejaVuSans-32" d="M 1228 531 
L 3431 531 
L 3431 0 
L 469 0 
L 469 531 
Q 828 903 1448 1529 
Q 2069 2156 2228 2338 
Q 2531 2678 2651 2914 
Q 2772 3150 2772 3378 
Q 2772 3750 2511 3984 
Q 2250 4219 1831 4219 
Q 1534 4219 1204 4116 
Q 875 4013 500 3803 
L 500 4441 
Q 881 4594 1212 4672 
Q 1544 4750 1819 4750 
Q 2544 4750 2975 4387 
Q 3406 4025 3406 3419 
Q 3406 3131 3298 2873 
Q 3191 2616 2906 2266 
Q 2828 2175 2409 1742 
Q 1991 1309 1228 531 
z
" transform="scale(0.015625)"/>
       </defs>
       <use xlink:href="#DejaVuSans-32"/>
       <use xlink:href="#DejaVuSans-30" x="63.623047"/>
       <use xlink:href="#DejaVuSans-30" x="127.246094"/>
      </g>
     </g>
    </g>
    <g id="xtick_3">
     <g id="line2d_3">
      <g>
       <use xlink:href="#m6dcfae8874" x="200.650909" y="307.584" style="stroke: #000000; stroke-width: 0.8"/>
      </g>
     </g>
     <g id="text_3">
      <!-- 400 -->
      <g transform="translate(191.107159 322.182437) scale(0.1 -0.1)">
       <defs>
        <path id="DejaVuSans-34" d="M 2419 4116 
L 825 1625 
L 2419 1625 
L 2419 4116 
z
M 2253 4666 
L 3047 4666 
L 3047 1625 
L 3713 1625 
L 3713 1100 
L 3047 1100 
L 3047 0 
L 2419 0 
L 2419 1100 
L 313 1100 
L 313 1709 
L 2253 4666 
z
" transform="scale(0.015625)"/>
       </defs>
       <use xlink:href="#DejaVuSans-34"/>
       <use xlink:href="#DejaVuSans-30" x="63.623047"/>
       <use xlink:href="#DejaVuSans-30" x="127.246094"/>
      </g>
     </g>
    </g>
    <g id="xtick_4">
     <g id="line2d_4">
      <g>
       <use xlink:href="#m6dcfae8874" x="264.06" y="307.584" style="stroke: #000000; stroke-width: 0.8"/>
      </g>
     </g>
     <g id="text_4">
      <!-- 600 -->
      <g transform="translate(254.51625 322.182437) scale(0.1 -0.1)">
       <defs>
        <path id="DejaVuSans-36" d="M 2113 2584 
Q 1688 2584 1439 2293 
Q 1191 2003 1191 1497 
Q 1191 994 1439 701 
Q 1688 409 2113 409 
Q 2538 409 2786 701 
Q 3034 994 3034 1497 
Q 3034 2003 2786 2293 
Q 2538 2584 2113 2584 
z
M 3366 4563 
L 3366 3988 
Q 3128 4100 2886 4159 
Q 2644 4219 2406 4219 
Q 1781 4219 1451 3797 
Q 1122 3375 1075 2522 
Q 1259 2794 1537 2939 
Q 1816 3084 2150 3084 
Q 2853 3084 3261 2657 
Q 3669 2231 3669 1497 
Q 3669 778 3244 343 
Q 2819 -91 2113 -91 
Q 1303 -91 875 529 
Q 447 1150 447 2328 
Q 447 3434 972 4092 
Q 1497 4750 2381 4750 
Q 2619 4750 2861 4703 
Q 3103 4656 3366 4563 
z
" transform="scale(0.015625)"/>
       </defs>
       <use xlink:href="#DejaVuSans-36"/>
       <use xlink:href="#DejaVuSans-30" x="63.623047"/>
       <use xlink:href="#DejaVuSans-30" x="127.246094"/>
      </g>
     </g>
    </g>
    <g id="xtick_5">
     <g id="line2d_5">
      <g>
       <use xlink:href="#m6dcfae8874" x="327.469091" y="307.584" style="stroke: #000000; stroke-width: 0.8"/>
      </g>
     </g>
     <g id="text_5">
      <!-- 800 -->
      <g transform="translate(317.925341 322.182437) scale(0.1 -0.1)">
       <defs>
        <path id="DejaVuSans-38" d="M 2034 2216 
Q 1584 2216 1326 1975 
Q 1069 1734 1069 1313 
Q 1069 891 1326 650 
Q 1584 409 2034 409 
Q 2484 409 2743 651 
Q 3003 894 3003 1313 
Q 3003 1734 2745 1975 
Q 2488 2216 2034 2216 
z
M 1403 2484 
Q 997 2584 770 2862 
Q 544 3141 544 3541 
Q 544 4100 942 4425 
Q 1341 4750 2034 4750 
Q 2731 4750 3128 4425 
Q 3525 4100 3525 3541 
Q 3525 3141 3298 2862 
Q 3072 2584 2669 2484 
Q 3125 2378 3379 2068 
Q 3634 1759 3634 1313 
Q 3634 634 3220 271 
Q 2806 -91 2034 -91 
Q 1263 -91 848 271 
Q 434 634 434 1313 
Q 434 1759 690 2068 
Q 947 2378 1403 2484 
z
M 1172 3481 
Q 1172 3119 1398 2916 
Q 1625 2713 2034 2713 
Q 2441 2713 2670 2916 
Q 2900 3119 2900 3481 
Q 2900 3844 2670 4047 
Q 2441 4250 2034 4250 
Q 1625 4250 1398 4047 
Q 1172 3844 1172 3481 
z
" transform="scale(0.015625)"/>
       </defs>
       <use xlink:href="#DejaVuSans-38"/>
       <use xlink:href="#DejaVuSans-30" x="63.623047"/>
       <use xlink:href="#DejaVuSans-30" x="127.246094"/>
      </g>
     </g>
    </g>
    <g id="xtick_6">
     <g id="line2d_6">
      <g>
       <use xlink:href="#m6dcfae8874" x="390.878182" y="307.584" style="stroke: #000000; stroke-width: 0.8"/>
      </g>
     </g>
     <g id="text_6">
      <!-- 1000 -->
      <g transform="translate(378.153182 322.182437) scale(0.1 -0.1)">
       <defs>
        <path id="DejaVuSans-31" d="M 794 531 
L 1825 531 
L 1825 4091 
L 703 3866 
L 703 4441 
L 1819 4666 
L 2450 4666 
L 2450 531 
L 3481 531 
L 3481 0 
L 794 0 
L 794 531 
z
" transform="scale(0.015625)"/>
       </defs>
       <use xlink:href="#DejaVuSans-31"/>
       <use xlink:href="#DejaVuSans-30" x="63.623047"/>
       <use xlink:href="#DejaVuSans-30" x="127.246094"/>
       <use xlink:href="#DejaVuSans-30" x="190.869141"/>
      </g>
     </g>
    </g>
    <g id="text_7">
     <!-- n -->
     <g transform="translate(232.99125 335.860562) scale(0.1 -0.1)">
      <defs>
       <path id="DejaVuSans-6e" d="M 3513 2113 
L 3513 0 
L 2938 0 
L 2938 2094 
Q 2938 2591 2744 2837 
Q 2550 3084 2163 3084 
Q 1697 3084 1428 2787 
Q 1159 2491 1159 1978 
L 1159 0 
L 581 0 
L 581 3500 
L 1159 3500 
L 1159 2956 
Q 1366 3272 1645 3428 
Q 1925 3584 2291 3584 
Q 2894 3584 3203 3211 
Q 3513 2838 3513 2113 
z
" transform="scale(0.015625)"/>
      </defs>
      <use xlink:href="#DejaVuSans-6e"/>
     </g>
    </g>
   </g>
   <g id="matplotlib.axis_2">
    <g id="ytick_1">
     <g id="line2d_7">
      <defs>
       <path id="m7c5f6a3639" d="M 0 0 
L -3.5 0 
" style="stroke: #000000; stroke-width: 0.8"/>
      </defs>
      <g>
       <use xlink:href="#m7c5f6a3639" x="57.6" y="279.587155" style="stroke: #000000; stroke-width: 0.8"/>
      </g>
     </g>
     <g id="text_8">
      <!-- 200 -->
      <g transform="translate(31.5125 283.386374) scale(0.1 -0.1)">
       <use xlink:href="#DejaVuSans-32"/>
       <use xlink:href="#DejaVuSans-30" x="63.623047"/>
       <use xlink:href="#DejaVuSans-30" x="127.246094"/>
      </g>
     </g>
    </g>
    <g id="ytick_2">
     <g id="line2d_8">
      <g>
       <use xlink:href="#m7c5f6a3639" x="57.6" y="234.156169" style="stroke: #000000; stroke-width: 0.8"/>
      </g>
     </g>
     <g id="text_9">
      <!-- 400 -->
      <g transform="translate(31.5125 237.955388) scale(0.1 -0.1)">
       <use xlink:href="#DejaVuSans-34"/>
       <use xlink:href="#DejaVuSans-30" x="63.623047"/>
       <use xlink:href="#DejaVuSans-30" x="127.246094"/>
      </g>
     </g>
    </g>
    <g id="ytick_3">
     <g id="line2d_9">
      <g>
       <use xlink:href="#m7c5f6a3639" x="57.6" y="188.725183" style="stroke: #000000; stroke-width: 0.8"/>
      </g>
     </g>
     <g id="text_10">
      <!-- 600 -->
      <g transform="translate(31.5125 192.524402) scale(0.1 -0.1)">
       <use xlink:href="#DejaVuSans-36"/>
       <use xlink:href="#DejaVuSans-30" x="63.623047"/>
       <use xlink:href="#DejaVuSans-30" x="127.246094"/>
      </g>
     </g>
    </g>
    <g id="ytick_4">
     <g id="line2d_10">
      <g>
       <use xlink:href="#m7c5f6a3639" x="57.6" y="143.294197" style="stroke: #000000; stroke-width: 0.8"/>
      </g>
     </g>
     <g id="text_11">
      <!-- 800 -->
      <g transform="translate(31.5125 147.093416) scale(0.1 -0.1)">
       <use xlink:href="#DejaVuSans-38"/>
       <use xlink:href="#DejaVuSans-30" x="63.623047"/>
       <use xlink:href="#DejaVuSans-30" x="127.246094"/>
      </g>
     </g>
    </g>
    <g id="ytick_5">
     <g id="line2d_11">
      <g>
       <use xlink:href="#m7c5f6a3639" x="57.6" y="97.863211" style="stroke: #000000; stroke-width: 0.8"/>
      </g>
     </g>
     <g id="text_12">
      <!-- 1000 -->
      <g transform="translate(25.15 101.66243) scale(0.1 -0.1)">
       <use xlink:href="#DejaVuSans-31"/>
       <use xlink:href="#DejaVuSans-30" x="63.623047"/>
       <use xlink:href="#DejaVuSans-30" x="127.246094"/>
       <use xlink:href="#DejaVuSans-30" x="190.869141"/>
      </g>
     </g>
    </g>
    <g id="ytick_6">
     <g id="line2d_12">
      <g>
       <use xlink:href="#m7c5f6a3639" x="57.6" y="52.432225" style="stroke: #000000; stroke-width: 0.8"/>
      </g>
     </g>
     <g id="text_13">
      <!-- 1200 -->
      <g transform="translate(25.15 56.231444) scale(0.1 -0.1)">
       <use xlink:href="#DejaVuSans-31"/>
       <use xlink:href="#DejaVuSans-32" x="63.623047"/>
       <use xlink:href="#DejaVuSans-30" x="127.246094"/>
       <use xlink:href="#DejaVuSans-30" x="190.869141"/>
      </g>
     </g>
    </g>
    <g id="text_14">
     <!-- Cycles -->
     <g transform="translate(19.070312 190.798312) rotate(-90) scale(0.1 -0.1)">
      <defs>
       <path id="DejaVuSans-43" d="M 4122 4306 
L 4122 3641 
Q 3803 3938 3442 4084 
Q 3081 4231 2675 4231 
Q 1875 4231 1450 3742 
Q 1025 3253 1025 2328 
Q 1025 1406 1450 917 
Q 1875 428 2675 428 
Q 3081 428 3442 575 
Q 3803 722 4122 1019 
L 4122 359 
Q 3791 134 3420 21 
Q 3050 -91 2638 -91 
Q 1578 -91 968 557 
Q 359 1206 359 2328 
Q 359 3453 968 4101 
Q 1578 4750 2638 4750 
Q 3056 4750 3426 4639 
Q 3797 4528 4122 4306 
z
" transform="scale(0.015625)"/>
       <path id="DejaVuSans-79" d="M 2059 -325 
Q 1816 -950 1584 -1140 
Q 1353 -1331 966 -1331 
L 506 -1331 
L 506 -850 
L 844 -850 
Q 1081 -850 1212 -737 
Q 1344 -625 1503 -206 
L 1606 56 
L 191 3500 
L 800 3500 
L 1894 763 
L 2988 3500 
L 3597 3500 
L 2059 -325 
z
" transform="scale(0.015625)"/>
       <path id="DejaVuSans-63" d="M 3122 3366 
L 3122 2828 
Q 2878 2963 2633 3030 
Q 2388 3097 2138 3097 
Q 1578 3097 1268 2742 
Q 959 2388 959 1747 
Q 959 1106 1268 751 
Q 1578 397 2138 397 
Q 2388 397 2633 464 
Q 2878 531 3122 666 
L 3122 134 
Q 2881 22 2623 -34 
Q 2366 -91 2075 -91 
Q 1284 -91 818 406 
Q 353 903 353 1747 
Q 353 2603 823 3093 
Q 1294 3584 2113 3584 
Q 2378 3584 2631 3529 
Q 2884 3475 3122 3366 
z
" transform="scale(0.015625)"/>
       <path id="DejaVuSans-6c" d="M 603 4863 
L 1178 4863 
L 1178 0 
L 603 0 
L 603 4863 
z
" transform="scale(0.015625)"/>
       <path id="DejaVuSans-65" d="M 3597 1894 
L 3597 1613 
L 953 1613 
Q 991 1019 1311 708 
Q 1631 397 2203 397 
Q 2534 397 2845 478 
Q 3156 559 3463 722 
L 3463 178 
Q 3153 47 2828 -22 
Q 2503 -91 2169 -91 
Q 1331 -91 842 396 
Q 353 884 353 1716 
Q 353 2575 817 3079 
Q 1281 3584 2069 3584 
Q 2775 3584 3186 3129 
Q 3597 2675 3597 1894 
z
M 3022 2063 
Q 3016 2534 2758 2815 
Q 2500 3097 2075 3097 
Q 1594 3097 1305 2825 
Q 1016 2553 972 2059 
L 3022 2063 
z
" transform="scale(0.015625)"/>
       <path id="DejaVuSans-73" d="M 2834 3397 
L 2834 2853 
Q 2591 2978 2328 3040 
Q 2066 3103 1784 3103 
Q 1356 3103 1142 2972 
Q 928 2841 928 2578 
Q 928 2378 1081 2264 
Q 1234 2150 1697 2047 
L 1894 2003 
Q 2506 1872 2764 1633 
Q 3022 1394 3022 966 
Q 3022 478 2636 193 
Q 2250 -91 1575 -91 
Q 1294 -91 989 -36 
Q 684 19 347 128 
L 347 722 
Q 666 556 975 473 
Q 1284 391 1588 391 
Q 1994 391 2212 530 
Q 2431 669 2431 922 
Q 2431 1156 2273 1281 
Q 2116 1406 1581 1522 
L 1381 1569 
Q 847 1681 609 1914 
Q 372 2147 372 2553 
Q 372 3047 722 3315 
Q 1072 3584 1716 3584 
Q 2034 3584 2315 3537 
Q 2597 3491 2834 3397 
z
" transform="scale(0.015625)"/>
      </defs>
      <use xlink:href="#DejaVuSans-43"/>
      <use xlink:href="#DejaVuSans-79" x="69.824219"/>
      <use xlink:href="#DejaVuSans-63" x="129.003906"/>
      <use xlink:href="#DejaVuSans-6c" x="183.984375"/>
      <use xlink:href="#DejaVuSans-65" x="211.767578"/>
      <use xlink:href="#DejaVuSans-73" x="273.291016"/>
     </g>
    </g>
   </g>
   <g id="line2d_13">
    <path d="M 73.832727 183.727775 
L 74.149773 183.727775 
L 74.466818 246.64969 
L 74.783864 249.602704 
L 75.100909 249.602704 
L 75.417955 248.01262 
L 76.052045 248.01262 
L 76.369091 249.375549 
L 76.686136 245.513915 
L 77.320227 245.513915 
L 77.637273 253.010028 
L 77.954318 253.010028 
L 78.271364 251.192789 
L 78.588409 243.696676 
L 78.905455 243.696676 
L 79.2225 252.101408 
L 79.539545 252.101408 
L 79.856591 251.192789 
L 80.490682 251.192789 
L 80.807727 240.289352 
L 81.124773 240.289352 
L 81.441818 189.860958 
L 81.758864 247.104 
L 82.392955 247.104 
L 82.71 250.738479 
L 83.027045 247.104 
L 83.661136 247.104 
L 83.978182 248.01262 
L 84.612273 248.01262 
L 84.929318 228.477296 
L 85.563409 228.477296 
L 85.880455 251.874254 
L 86.1975 251.874254 
L 86.514545 250.284169 
L 86.831591 208.260507 
L 87.148636 250.284169 
L 87.465682 208.260507 
L 87.782727 194.858366 
L 88.099773 193.495437 
L 88.416818 193.495437 
L 88.733864 254.372958 
L 89.050909 254.372958 
L 89.685 250.284169 
L 90.002045 252.101408 
L 90.319091 252.101408 
L 90.636136 252.555718 
L 90.953182 252.555718 
L 91.270227 246.64969 
L 91.587273 246.64969 
L 91.904318 248.01262 
L 92.221364 250.284169 
L 92.855455 250.284169 
L 93.1725 257.325972 
L 93.489545 257.325972 
L 93.806591 251.192789 
L 94.440682 251.192789 
L 94.757727 255.054423 
L 95.074773 248.46693 
L 95.391818 264.14062 
L 95.708864 252.328563 
L 96.025909 264.14062 
L 96.342955 252.328563 
L 96.66 245.74107 
L 96.977045 245.74107 
L 97.294091 248.01262 
L 97.611136 252.555718 
L 97.928182 258.916056 
L 98.245227 258.916056 
L 98.562273 256.644507 
L 99.513409 245.74107 
L 99.830455 245.74107 
L 100.1475 235.973408 
L 100.464545 252.101408 
L 100.781591 235.973408 
L 101.098636 255.281577 
L 101.415682 254.372958 
L 101.732727 254.372958 
L 102.049773 251.192789 
L 102.366818 182.819155 
L 102.683864 182.819155 
L 103.000909 249.602704 
L 103.317955 252.555718 
L 103.952045 252.555718 
L 104.269091 255.281577 
L 104.903182 255.281577 
L 105.220227 255.054423 
L 105.537273 249.375549 
L 105.854318 254.372958 
L 106.488409 254.372958 
L 106.805455 254.827268 
L 107.1225 245.968225 
L 107.439545 254.372958 
L 107.756591 249.829859 
L 108.073636 254.372958 
L 108.390682 249.829859 
L 108.707727 252.101408 
L 109.658864 252.101408 
L 109.975909 253.691493 
L 110.292955 251.192789 
L 110.61 253.464338 
L 110.927045 149.200225 
L 111.244091 250.284169 
L 111.561136 246.64969 
L 112.195227 246.64969 
L 112.512273 252.101408 
L 113.146364 252.101408 
L 113.463409 252.328563 
L 113.780455 252.328563 
L 114.0975 248.01262 
L 114.414545 247.785465 
L 114.731591 240.516507 
L 115.048636 240.516507 
L 115.365682 251.192789 
L 115.682727 251.192789 
L 115.999773 175.550197 
L 116.316818 175.550197 
L 116.633864 252.555718 
L 116.950909 252.555718 
L 117.267955 251.647099 
L 117.585 249.602704 
L 117.902045 192.132507 
L 118.219091 192.132507 
L 118.536136 235.064789 
L 118.853182 235.064789 
L 119.170227 249.829859 
L 119.487273 204.626028 
L 119.804318 248.921239 
L 120.121364 248.921239 
L 120.438409 250.284169 
L 120.755455 256.190197 
L 121.0725 250.284169 
L 121.389545 251.192789 
L 122.023636 251.192789 
L 122.340682 257.098817 
L 122.657727 240.970817 
L 122.974773 250.284169 
L 123.608864 250.284169 
L 123.925909 251.192789 
L 124.242955 255.281577 
L 124.877045 255.281577 
L 125.194091 244.605296 
L 125.511136 237.790648 
L 126.145227 251.192789 
L 126.462273 251.192789 
L 126.779318 250.738479 
L 127.413409 250.738479 
L 127.730455 188.498028 
L 128.0475 188.498028 
L 128.364545 248.46693 
L 128.681591 248.46693 
L 128.998636 252.555718 
L 129.632727 252.555718 
L 129.949773 252.101408 
L 130.583864 252.101408 
L 130.900909 240.062197 
L 131.535 240.062197 
L 131.852045 254.372958 
L 132.169091 251.647099 
L 132.803182 251.647099 
L 133.120227 252.555718 
L 134.071364 252.555718 
L 134.388409 251.647099 
L 134.705455 107.630873 
L 135.0225 107.630873 
L 135.339545 193.041127 
L 135.656591 245.513915 
L 135.973636 254.372958 
L 136.290682 254.372958 
L 136.607727 252.555718 
L 136.924773 246.422535 
L 137.241818 172.142873 
L 137.558864 246.422535 
L 137.875909 253.918648 
L 138.192955 253.918648 
L 138.51 249.375549 
L 138.827045 249.375549 
L 139.144091 250.284169 
L 139.461136 250.284169 
L 139.778182 249.829859 
L 140.095227 205.534648 
L 140.412273 199.17431 
L 140.729318 199.17431 
L 141.363409 248.921239 
L 141.680455 225.297127 
L 141.9975 251.192789 
L 142.314545 252.555718 
L 142.631591 254.827268 
L 142.948636 252.555718 
L 143.265682 249.375549 
L 143.582727 249.375549 
L 144.216818 252.555718 
L 144.533864 252.555718 
L 145.167955 250.738479 
L 145.802045 250.738479 
L 146.119091 247.785465 
L 146.436136 247.785465 
L 146.753182 209.169127 
L 147.070227 209.169127 
L 147.387273 203.717408 
L 147.704318 255.281577 
L 148.338409 255.281577 
L 148.655455 253.918648 
L 148.9725 153.970479 
L 149.289545 250.738479 
L 149.923636 250.738479 
L 150.240682 248.921239 
L 150.557727 216.665239 
L 150.874773 247.55831 
L 151.191818 236.427718 
L 151.508864 247.55831 
L 151.825909 254.145803 
L 152.142955 254.145803 
L 152.777045 231.88462 
L 153.094091 240.970817 
L 153.411136 218.028169 
L 153.728182 218.028169 
L 154.045227 215.75662 
L 154.362273 186.453634 
L 154.679318 215.75662 
L 154.996364 186.453634 
L 155.313409 248.01262 
L 155.9475 248.01262 
L 156.264545 254.600113 
L 156.581591 235.064789 
L 157.215682 235.064789 
L 157.532727 207.806197 
L 157.849773 251.192789 
L 158.166818 239.607887 
L 158.483864 240.743662 
L 159.117955 240.743662 
L 159.435 245.968225 
L 159.752045 214.39369 
L 160.069091 214.39369 
L 160.386136 201.218704 
L 160.703182 201.218704 
L 161.020227 254.145803 
L 161.337273 254.145803 
L 161.654318 251.647099 
L 162.288409 251.647099 
L 162.605455 248.921239 
L 162.9225 248.921239 
L 163.239545 117.852845 
L 163.556591 250.284169 
L 163.873636 250.284169 
L 164.190682 251.192789 
L 164.507727 251.192789 
L 164.824773 253.010028 
L 165.141818 157.832113 
L 165.458864 250.738479 
L 165.775909 250.738479 
L 166.092955 256.190197 
L 166.41 256.190197 
L 167.044091 237.790648 
L 167.678182 237.790648 
L 167.995227 251.192789 
L 168.312273 247.104 
L 168.629318 253.918648 
L 168.946364 251.192789 
L 169.263409 259.143211 
L 169.580455 251.192789 
L 169.8975 250.738479 
L 170.214545 250.738479 
L 170.531591 251.192789 
L 171.165682 251.192789 
L 171.482727 250.284169 
L 171.799773 250.284169 
L 172.116818 235.064789 
L 172.433864 99.453296 
L 172.750909 99.453296 
L 173.067955 240.289352 
L 173.385 253.010028 
L 173.702045 253.010028 
L 174.019091 249.375549 
L 174.336136 229.61307 
L 174.653182 229.61307 
L 174.970227 242.788056 
L 175.287273 250.284169 
L 175.604318 252.101408 
L 175.921364 250.284169 
L 176.238409 254.372958 
L 176.555455 250.738479 
L 177.506591 250.738479 
L 177.823636 251.647099 
L 178.140682 250.738479 
L 178.457727 251.647099 
L 178.774773 211.894986 
L 179.091818 250.284169 
L 179.725909 250.284169 
L 180.042955 250.738479 
L 180.36 181.22907 
L 180.677045 236.427718 
L 180.994091 236.427718 
L 181.311136 250.738479 
L 181.628182 250.738479 
L 181.945227 91.502873 
L 182.262273 91.502873 
L 182.579318 250.284169 
L 183.213409 250.284169 
L 183.530455 248.46693 
L 183.8475 250.284169 
L 184.164545 248.46693 
L 184.481591 252.101408 
L 185.115682 252.101408 
L 185.432727 251.192789 
L 185.749773 206.443268 
L 186.066818 206.443268 
L 186.383864 250.738479 
L 186.700909 250.738479 
L 187.017955 140.341183 
L 187.335 140.341183 
L 187.652045 255.735887 
L 187.969091 255.735887 
L 188.286136 255.281577 
L 188.603182 255.281577 
L 188.920227 256.417352 
L 189.237273 256.417352 
L 189.554318 242.333746 
L 189.871364 242.333746 
L 190.188409 248.46693 
L 190.505455 251.874254 
L 190.8225 251.874254 
L 191.139545 253.918648 
L 191.456591 253.010028 
L 191.773636 253.010028 
L 192.407727 249.602704 
L 192.724773 251.192789 
L 193.041818 249.602704 
L 193.358864 252.782873 
L 193.675909 253.464338 
L 193.992955 253.464338 
L 194.31 255.281577 
L 194.627045 252.555718 
L 194.944091 252.555718 
L 195.261136 251.192789 
L 195.578182 91.502873 
L 195.895227 242.333746 
L 196.212273 240.516507 
L 196.846364 240.516507 
L 197.163409 237.790648 
L 197.480455 243.469521 
L 198.114545 243.469521 
L 198.431591 248.46693 
L 198.748636 248.01262 
L 199.065682 248.01262 
L 199.382727 247.785465 
L 199.699773 247.785465 
L 200.016818 249.375549 
L 200.333864 249.375549 
L 200.650909 251.192789 
L 200.967955 251.192789 
L 201.285 253.464338 
L 201.602045 254.372958 
L 201.919091 253.464338 
L 202.236136 253.464338 
L 202.870227 180.093296 
L 203.187273 180.093296 
L 203.504318 249.602704 
L 203.821364 249.602704 
L 204.138409 251.647099 
L 204.455455 250.738479 
L 205.406591 250.738479 
L 205.723636 252.101408 
L 206.040682 252.101408 
L 206.357727 250.738479 
L 206.991818 206.443268 
L 207.308864 206.443268 
L 207.625909 250.738479 
L 207.942955 252.555718 
L 208.26 250.738479 
L 208.894091 254.372958 
L 209.211136 254.372958 
L 209.528182 247.55831 
L 209.845227 247.55831 
L 210.162273 248.01262 
L 210.479318 248.01262 
L 210.796364 138.978254 
L 211.113409 138.978254 
L 211.430455 237.790648 
L 211.7475 248.694085 
L 212.064545 252.101408 
L 212.381591 248.694085 
L 212.698636 253.010028 
L 213.332727 240.970817 
L 213.649773 183.95493 
L 213.966818 180.547606 
L 214.600909 180.547606 
L 214.917955 205.988958 
L 215.235 205.988958 
L 215.552045 245.059606 
L 215.869091 250.738479 
L 216.186136 245.059606 
L 216.503182 251.192789 
L 216.820227 209.169127 
L 217.137273 251.647099 
L 217.454318 251.192789 
L 217.771364 251.192789 
L 218.088409 116.944225 
L 218.405455 116.489915 
L 218.7225 116.489915 
L 219.039545 179.638986 
L 219.356591 196.675606 
L 219.673636 241.197972 
L 219.990682 249.829859 
L 220.307727 241.197972 
L 220.624773 249.829859 
L 220.941818 251.647099 
L 221.258864 251.647099 
L 221.892955 249.829859 
L 222.527045 249.829859 
L 222.844091 254.372958 
L 223.161136 254.372958 
L 223.478182 246.64969 
L 223.795227 246.64969 
L 224.112273 231.657465 
L 224.429318 250.738479 
L 224.746364 255.281577 
L 225.063409 255.281577 
L 225.380455 220.754028 
L 225.6975 220.754028 
L 226.014545 250.738479 
L 226.331591 250.738479 
L 226.965682 229.385915 
L 227.282727 229.385915 
L 227.599773 253.464338 
L 227.916818 254.145803 
L 228.550909 254.145803 
L 228.867955 248.46693 
L 229.185 250.738479 
L 229.819091 250.738479 
L 230.136136 251.192789 
L 230.770227 251.192789 
L 231.087273 251.874254 
L 231.721364 251.874254 
L 232.038409 252.328563 
L 232.355455 249.829859 
L 232.6725 250.738479 
L 232.989545 249.829859 
L 233.306591 248.46693 
L 233.940682 248.46693 
L 234.257727 199.17431 
L 234.574773 199.17431 
L 235.208864 295.488 
L 235.525909 254.372958 
L 235.842955 251.647099 
L 236.16 251.192789 
L 236.794091 251.192789 
L 237.111136 256.871662 
L 237.428182 121.033014 
L 237.745227 265.503549 
L 238.062273 248.01262 
L 238.696364 248.01262 
L 239.013409 248.694085 
L 239.330455 248.694085 
L 239.6475 251.192789 
L 239.964545 252.555718 
L 240.281591 252.555718 
L 240.598636 254.827268 
L 240.915682 251.647099 
L 241.232727 252.555718 
L 241.549773 251.647099 
L 241.866818 239.380732 
L 242.183864 239.380732 
L 243.135 256.644507 
L 243.452045 256.644507 
L 243.769091 251.874254 
L 244.086136 218.482479 
L 244.720227 218.482479 
L 245.037273 250.738479 
L 245.354318 250.738479 
L 245.671364 254.372958 
L 245.988409 232.33893 
L 246.305455 252.782873 
L 246.6225 251.647099 
L 247.256591 251.647099 
L 247.573636 250.284169 
L 248.207727 250.284169 
L 248.524773 249.829859 
L 249.158864 249.829859 
L 249.475909 247.55831 
L 249.792955 250.738479 
L 250.11 251.647099 
L 250.427045 252.101408 
L 250.744091 251.647099 
L 251.061136 250.284169 
L 251.378182 250.284169 
L 251.695227 255.735887 
L 252.012273 256.871662 
L 252.329318 256.871662 
L 252.646364 229.61307 
L 252.963409 229.61307 
L 253.280455 252.555718 
L 253.5975 252.555718 
L 253.914545 250.738479 
L 254.231591 246.64969 
L 254.548636 246.64969 
L 254.865682 240.516507 
L 255.499773 240.516507 
L 255.816818 240.970817 
L 256.133864 251.647099 
L 256.767955 231.88462 
L 257.085 95.137352 
L 257.402045 231.88462 
L 257.719091 250.738479 
L 258.036136 250.738479 
L 258.353182 249.375549 
L 258.670227 249.375549 
L 258.987273 251.647099 
L 259.304318 251.647099 
L 259.621364 254.827268 
L 259.938409 252.101408 
L 260.255455 253.918648 
L 260.5725 252.101408 
L 260.889545 246.876845 
L 261.206591 246.876845 
L 261.523636 251.192789 
L 261.840682 251.192789 
L 262.157727 254.372958 
L 262.474773 182.592 
L 263.108864 182.592 
L 263.425909 248.694085 
L 263.742955 248.694085 
L 264.06 206.897577 
L 264.377045 206.897577 
L 264.694091 248.921239 
L 265.011136 248.921239 
L 265.328182 254.372958 
L 265.645227 254.372958 
L 265.962273 246.64969 
L 266.279318 246.64969 
L 266.596364 253.918648 
L 266.913409 255.281577 
L 267.230455 255.281577 
L 267.5475 251.192789 
L 267.864545 181.001915 
L 268.181591 251.192789 
L 268.498636 255.281577 
L 268.815682 255.281577 
L 269.132727 250.284169 
L 269.449773 250.284169 
L 269.766818 248.46693 
L 270.083864 53.568 
L 270.400909 53.568 
L 270.717955 215.529465 
L 271.035 255.281577 
L 271.352045 265.957859 
L 271.669091 255.281577 
L 271.986136 248.46693 
L 272.303182 244.378141 
L 272.937273 252.101408 
L 273.254318 252.101408 
L 273.571364 251.192789 
L 273.888409 250.738479 
L 274.205455 216.438085 
L 274.5225 216.438085 
L 274.839545 250.284169 
L 275.156591 250.284169 
L 275.473636 222.116958 
L 275.790682 222.116958 
L 276.107727 253.918648 
L 276.424773 253.918648 
L 276.741818 252.555718 
L 277.058864 250.284169 
L 278.01 250.284169 
L 278.327045 227.341521 
L 278.644091 227.341521 
L 278.961136 255.281577 
L 279.278182 255.281577 
L 279.595227 253.918648 
L 280.229318 253.918648 
L 280.546364 248.46693 
L 280.863409 248.46693 
L 281.180455 252.328563 
L 281.4975 252.328563 
L 281.814545 219.845408 
L 282.131591 219.845408 
L 282.448636 241.197972 
L 282.765682 251.647099 
L 283.082727 251.647099 
L 283.399773 250.738479 
L 283.716818 250.284169 
L 284.033864 250.284169 
L 284.350909 252.555718 
L 284.667955 253.464338 
L 284.985 253.464338 
L 285.302045 250.738479 
L 285.936136 250.738479 
L 286.253182 254.827268 
L 286.570227 245.286761 
L 286.887273 167.599775 
L 287.204318 167.599775 
L 287.521364 201.900169 
L 287.838409 250.284169 
L 288.155455 254.372958 
L 288.4725 253.010028 
L 288.789545 264.59493 
L 289.106591 253.010028 
L 289.423636 252.555718 
L 289.740682 252.555718 
L 290.057727 247.55831 
L 290.374773 247.55831 
L 290.691818 251.647099 
L 291.008864 252.101408 
L 291.325909 251.647099 
L 291.642955 248.921239 
L 292.277045 248.921239 
L 292.911136 251.647099 
L 293.228182 251.647099 
L 293.545227 240.516507 
L 293.862273 240.516507 
L 294.179318 249.829859 
L 294.813409 250.738479 
L 295.130455 250.738479 
L 295.4475 254.600113 
L 295.764545 246.19538 
L 296.081591 225.524282 
L 296.715682 225.524282 
L 297.032727 188.043718 
L 297.349773 188.043718 
L 297.666818 192.586817 
L 297.983864 193.495437 
L 298.300909 253.010028 
L 298.617955 248.46693 
L 298.935 251.192789 
L 299.252045 248.46693 
L 299.569091 248.01262 
L 299.886136 248.01262 
L 300.203182 252.101408 
L 300.520227 252.101408 
L 300.837273 248.921239 
L 301.154318 237.790648 
L 301.471364 237.790648 
L 301.788409 240.970817 
L 302.105455 250.284169 
L 302.4225 248.46693 
L 302.739545 250.284169 
L 303.056591 251.192789 
L 303.373636 253.918648 
L 303.690682 251.192789 
L 304.007727 162.148056 
L 304.324773 162.148056 
L 304.641818 249.829859 
L 304.958864 252.555718 
L 305.592955 252.555718 
L 305.91 249.829859 
L 306.227045 249.375549 
L 306.544091 249.829859 
L 306.861136 254.372958 
L 307.178182 254.372958 
L 307.495227 249.602704 
L 307.812273 249.602704 
L 308.129318 251.192789 
L 308.446364 251.192789 
L 308.763409 233.701859 
L 309.080455 233.701859 
L 309.3975 248.921239 
L 309.714545 251.192789 
L 310.031591 250.284169 
L 311.299773 250.284169 
L 311.616818 255.054423 
L 311.933864 250.738479 
L 312.250909 250.738479 
L 312.567955 248.46693 
L 313.202045 248.46693 
L 313.519091 252.101408 
L 313.836136 252.101408 
L 314.153182 253.464338 
L 314.470227 253.918648 
L 314.787273 253.464338 
L 315.104318 254.372958 
L 315.421364 253.010028 
L 315.738409 253.918648 
L 316.055455 251.647099 
L 316.3725 253.918648 
L 316.689545 265.049239 
L 317.006591 265.049239 
L 317.323636 251.647099 
L 317.640682 251.647099 
L 317.957727 104.450704 
L 318.274773 198.947155 
L 318.591818 198.947155 
L 318.908864 249.829859 
L 319.225909 249.829859 
L 319.542955 168.054085 
L 319.86 168.054085 
L 320.177045 123.531718 
L 320.494091 225.297127 
L 320.811136 249.829859 
L 321.128182 250.284169 
L 321.445227 249.829859 
L 321.762273 246.64969 
L 322.396364 246.64969 
L 322.713409 248.239775 
L 323.030455 248.239775 
L 323.3475 249.829859 
L 323.664545 249.829859 
L 323.981591 244.605296 
L 324.298636 228.022986 
L 324.615682 228.022986 
L 324.932727 254.827268 
L 325.249773 254.827268 
L 325.566818 248.921239 
L 325.883864 248.921239 
L 326.200909 54.249465 
L 326.517955 62.199887 
L 326.835 62.199887 
L 327.152045 250.738479 
L 327.469091 250.738479 
L 327.786136 248.46693 
L 328.103182 225.297127 
L 328.420227 248.46693 
L 328.737273 218.936789 
L 329.054318 254.145803 
L 329.371364 206.897577 
L 329.688409 250.284169 
L 330.005455 122.850254 
L 330.3225 250.284169 
L 330.639545 249.375549 
L 330.956591 249.375549 
L 331.273636 211.440676 
L 331.590682 211.440676 
L 331.907727 252.101408 
L 332.224773 252.555718 
L 332.541818 252.101408 
L 332.858864 249.602704 
L 333.175909 249.602704 
L 333.492955 252.555718 
L 334.444091 252.555718 
L 334.761136 255.508732 
L 335.078182 252.555718 
L 335.395227 253.464338 
L 335.712273 248.921239 
L 336.029318 232.111775 
L 336.346364 232.111775 
L 336.663409 233.247549 
L 336.980455 249.375549 
L 337.2975 253.918648 
L 337.614545 254.827268 
L 337.931591 254.827268 
L 338.248636 158.967887 
L 338.565682 158.967887 
L 338.882727 224.388507 
L 339.516818 243.923831 
L 339.833864 248.239775 
L 340.150909 243.923831 
L 340.467955 228.477296 
L 340.785 228.477296 
L 341.102045 232.793239 
L 341.419091 251.647099 
L 341.736136 232.793239 
L 342.053182 192.132507 
L 342.370227 192.132507 
L 342.687273 250.284169 
L 343.004318 250.284169 
L 343.321364 255.281577 
L 343.638409 255.281577 
L 344.2725 246.19538 
L 344.589545 245.74107 
L 344.906591 245.74107 
L 345.223636 256.644507 
L 345.540682 256.644507 
L 345.857727 255.281577 
L 346.174773 255.281577 
L 346.491818 254.827268 
L 346.808864 247.55831 
L 347.125909 243.923831 
L 347.76 251.192789 
L 348.077045 251.192789 
L 348.394091 253.010028 
L 348.711136 250.284169 
L 349.028182 251.192789 
L 349.345227 250.284169 
L 349.662273 248.01262 
L 349.979318 248.01262 
L 350.296364 253.464338 
L 350.613409 253.464338 
L 350.930455 251.192789 
L 351.2475 243.469521 
L 351.881591 243.469521 
L 352.198636 247.104 
L 352.515682 249.375549 
L 352.832727 249.375549 
L 353.149773 265.957859 
L 353.466818 151.926085 
L 353.783864 259.370366 
L 354.100909 257.553127 
L 354.417955 257.553127 
L 354.735 254.372958 
L 355.052045 197.129915 
L 355.369091 197.129915 
L 355.686136 57.883944 
L 356.003182 202.808789 
L 356.320227 184.863549 
L 356.637273 223.025577 
L 356.954318 223.025577 
L 357.271364 250.738479 
L 357.588409 254.372958 
L 357.905455 254.827268 
L 358.2225 254.372958 
L 358.539545 234.610479 
L 358.856591 234.610479 
L 359.173636 251.647099 
L 359.490682 251.647099 
L 359.807727 236.427718 
L 360.124773 236.427718 
L 360.441818 253.918648 
L 360.758864 262.32338 
L 361.075909 262.32338 
L 361.392955 245.059606 
L 361.71 245.059606 
L 362.027045 248.921239 
L 362.344091 254.827268 
L 362.661136 254.827268 
L 362.978182 249.829859 
L 363.295227 242.788056 
L 363.612273 248.239775 
L 364.246364 248.239775 
L 364.563409 246.19538 
L 364.880455 243.015211 
L 365.1975 246.19538 
L 365.514545 246.64969 
L 365.831591 249.375549 
L 366.148636 246.64969 
L 366.465682 251.192789 
L 366.782727 243.015211 
L 367.099773 254.372958 
L 367.733864 254.372958 
L 368.050909 239.380732 
L 368.367955 239.380732 
L 368.685 214.166535 
L 369.002045 251.647099 
L 369.319091 249.148394 
L 369.636136 249.148394 
L 369.953182 223.479887 
L 370.270227 223.479887 
L 370.587273 242.560901 
L 370.904318 242.560901 
L 371.221364 250.284169 
L 371.538409 248.46693 
L 371.855455 248.46693 
L 372.1725 173.051493 
L 372.489545 173.051493 
L 372.806591 255.963042 
L 373.123636 255.963042 
L 373.440682 108.539493 
L 373.757727 108.539493 
L 374.074773 250.738479 
L 374.391818 250.738479 
L 374.708864 248.921239 
L 375.025909 223.934197 
L 375.342955 248.921239 
L 375.66 254.827268 
L 376.294091 254.827268 
L 376.611136 250.284169 
L 376.928182 254.372958 
L 377.245227 254.372958 
L 377.562273 256.644507 
L 377.879318 256.644507 
L 378.196364 251.874254 
L 378.513409 251.192789 
L 378.830455 243.015211 
L 379.1475 243.015211 
L 379.464545 249.829859 
L 379.781591 252.555718 
L 380.098636 253.918648 
L 380.415682 253.918648 
L 380.732727 240.289352 
L 381.049773 240.289352 
L 381.366818 250.284169 
L 382.000909 250.284169 
L 382.317955 253.464338 
L 382.635 253.464338 
L 382.952045 250.738479 
L 383.586136 250.738479 
L 383.903182 260.506141 
L 384.220227 250.738479 
L 384.537273 251.192789 
L 384.854318 250.738479 
L 385.171364 248.01262 
L 385.488409 248.01262 
L 385.805455 249.829859 
L 386.1225 249.829859 
L 386.756591 246.64969 
L 387.073636 246.64969 
L 387.390682 249.829859 
L 387.707727 254.372958 
L 388.024773 249.829859 
L 388.341818 134.889465 
L 388.658864 134.889465 
L 388.975909 251.192789 
L 389.292955 252.101408 
L 389.927045 252.101408 
L 390.244091 253.237183 
L 390.561136 253.237183 
L 390.878182 255.508732 
L 391.195227 252.782873 
L 391.512273 252.782873 
L 391.829318 247.55831 
L 392.146364 131.254986 
L 392.463409 131.254986 
L 392.780455 254.600113 
L 393.0975 255.508732 
L 393.414545 255.508732 
L 393.731591 208.714817 
L 394.048636 208.714817 
L 394.365682 252.101408 
L 394.682727 252.101408 
L 394.999773 253.010028 
L 395.316818 248.46693 
L 395.633864 252.555718 
L 395.950909 251.647099 
L 396.267955 251.647099 
L 396.585 251.192789 
L 396.902045 251.192789 
L 397.219091 250.738479 
L 397.853182 254.372958 
L 398.487273 254.372958 
L 398.487273 254.372958 
" clip-path="url(#p400ed8ec19)" style="fill: none; stroke: #1f77b4; stroke-width: 1.5; stroke-linecap: square"/>
   </g>
   <g id="patch_3">
    <path d="M 57.6 307.584 
L 57.6 41.472 
" style="fill: none; stroke: #000000; stroke-width: 0.8; stroke-linejoin: miter; stroke-linecap: square"/>
   </g>
   <g id="patch_4">
    <path d="M 414.72 307.584 
L 414.72 41.472 
" style="fill: none; stroke: #000000; stroke-width: 0.8; stroke-linejoin: miter; stroke-linecap: square"/>
   </g>
   <g id="patch_5">
    <path d="M 57.6 307.584 
L 414.72 307.584 
" style="fill: none; stroke: #000000; stroke-width: 0.8; stroke-linejoin: miter; stroke-linecap: square"/>
   </g>
   <g id="patch_6">
    <path d="M 57.6 41.472 
L 414.72 41.472 
" style="fill: none; stroke: #000000; stroke-width: 0.8; stroke-linejoin: miter; stroke-linecap: square"/>
   </g>
   <g id="text_15">
    <!-- LEA Encryption -->
    <g transform="translate(190.801875 35.472) scale(0.12 -0.12)">
     <defs>
      <path id="DejaVuSans-4c" d="M 628 4666 
L 1259 4666 
L 1259 531 
L 3531 531 
L 3531 0 
L 628 0 
L 628 4666 
z
" transform="scale(0.015625)"/>
      <path id="DejaVuSans-45" d="M 628 4666 
L 3578 4666 
L 3578 4134 
L 1259 4134 
L 1259 2753 
L 3481 2753 
L 3481 2222 
L 1259 2222 
L 1259 531 
L 3634 531 
L 3634 0 
L 628 0 
L 628 4666 
z
" transform="scale(0.015625)"/>
      <path id="DejaVuSans-41" d="M 2188 4044 
L 1331 1722 
L 3047 1722 
L 2188 4044 
z
M 1831 4666 
L 2547 4666 
L 4325 0 
L 3669 0 
L 3244 1197 
L 1141 1197 
L 716 0 
L 50 0 
L 1831 4666 
z
" transform="scale(0.015625)"/>
      <path id="DejaVuSans-20" transform="scale(0.015625)"/>
      <path id="DejaVuSans-72" d="M 2631 2963 
Q 2534 3019 2420 3045 
Q 2306 3072 2169 3072 
Q 1681 3072 1420 2755 
Q 1159 2438 1159 1844 
L 1159 0 
L 581 0 
L 581 3500 
L 1159 3500 
L 1159 2956 
Q 1341 3275 1631 3429 
Q 1922 3584 2338 3584 
Q 2397 3584 2469 3576 
Q 2541 3569 2628 3553 
L 2631 2963 
z
" transform="scale(0.015625)"/>
      <path id="DejaVuSans-70" d="M 1159 525 
L 1159 -1331 
L 581 -1331 
L 581 3500 
L 1159 3500 
L 1159 2969 
Q 1341 3281 1617 3432 
Q 1894 3584 2278 3584 
Q 2916 3584 3314 3078 
Q 3713 2572 3713 1747 
Q 3713 922 3314 415 
Q 2916 -91 2278 -91 
Q 1894 -91 1617 61 
Q 1341 213 1159 525 
z
M 3116 1747 
Q 3116 2381 2855 2742 
Q 2594 3103 2138 3103 
Q 1681 3103 1420 2742 
Q 1159 2381 1159 1747 
Q 1159 1113 1420 752 
Q 1681 391 2138 391 
Q 2594 391 2855 752 
Q 3116 1113 3116 1747 
z
" transform="scale(0.015625)"/>
      <path id="DejaVuSans-74" d="M 1172 4494 
L 1172 3500 
L 2356 3500 
L 2356 3053 
L 1172 3053 
L 1172 1153 
Q 1172 725 1289 603 
Q 1406 481 1766 481 
L 2356 481 
L 2356 0 
L 1766 0 
Q 1100 0 847 248 
Q 594 497 594 1153 
L 594 3053 
L 172 3053 
L 172 3500 
L 594 3500 
L 594 4494 
L 1172 4494 
z
" transform="scale(0.015625)"/>
      <path id="DejaVuSans-69" d="M 603 3500 
L 1178 3500 
L 1178 0 
L 603 0 
L 603 3500 
z
M 603 4863 
L 1178 4863 
L 1178 4134 
L 603 4134 
L 603 4863 
z
" transform="scale(0.015625)"/>
      <path id="DejaVuSans-6f" d="M 1959 3097 
Q 1497 3097 1228 2736 
Q 959 2375 959 1747 
Q 959 1119 1226 758 
Q 1494 397 1959 397 
Q 2419 397 2687 759 
Q 2956 1122 2956 1747 
Q 2956 2369 2687 2733 
Q 2419 3097 1959 3097 
z
M 1959 3584 
Q 2709 3584 3137 3096 
Q 3566 2609 3566 1747 
Q 3566 888 3137 398 
Q 2709 -91 1959 -91 
Q 1206 -91 779 398 
Q 353 888 353 1747 
Q 353 2609 779 3096 
Q 1206 3584 1959 3584 
z
" transform="scale(0.015625)"/>
     </defs>
     <use xlink:href="#DejaVuSans-4c"/>
     <use xlink:href="#DejaVuSans-45" x="55.712891"/>
     <use xlink:href="#DejaVuSans-41" x="118.896484"/>
     <use xlink:href="#DejaVuSans-20" x="187.304688"/>
     <use xlink:href="#DejaVuSans-45" x="219.091797"/>
     <use xlink:href="#DejaVuSans-6e" x="282.275391"/>
     <use xlink:href="#DejaVuSans-63" x="345.654297"/>
     <use xlink:href="#DejaVuSans-72" x="400.634766"/>
     <use xlink:href="#DejaVuSans-79" x="441.748047"/>
     <use xlink:href="#DejaVuSans-70" x="500.927734"/>
     <use xlink:href="#DejaVuSans-74" x="564.404297"/>
     <use xlink:href="#DejaVuSans-69" x="603.613281"/>
     <use xlink:href="#DejaVuSans-6f" x="631.396484"/>
     <use xlink:href="#DejaVuSans-6e" x="692.578125"/>
    </g>
   </g>
   <g id="legend_1">
    <g id="patch_7">
     <path d="M 64.6 302.584 
L 353.817188 302.584 
Q 355.817188 302.584 355.817188 300.584 
L 355.817188 286.905875 
Q 355.817188 284.905875 353.817188 284.905875 
L 64.6 284.905875 
Q 62.6 284.905875 62.6 286.905875 
L 62.6 300.584 
Q 62.6 302.584 64.6 302.584 
z
" style="fill: #ffffff; opacity: 0.8; stroke: #cccccc; stroke-linejoin: miter"/>
    </g>
    <g id="line2d_14">
     <path d="M 66.6 293.004312 
L 76.6 293.004312 
L 86.6 293.004312 
" style="fill: none; stroke: #1f77b4; stroke-width: 1.5; stroke-linecap: square"/>
    </g>
    <g id="text_16">
     <!-- Median filtered encryption algorithm cycles per run -->
     <g transform="translate(94.6 296.504312) scale(0.1 -0.1)">
      <defs>
       <path id="DejaVuSans-4d" d="M 628 4666 
L 1569 4666 
L 2759 1491 
L 3956 4666 
L 4897 4666 
L 4897 0 
L 4281 0 
L 4281 4097 
L 3078 897 
L 2444 897 
L 1241 4097 
L 1241 0 
L 628 0 
L 628 4666 
z
" transform="scale(0.015625)"/>
       <path id="DejaVuSans-64" d="M 2906 2969 
L 2906 4863 
L 3481 4863 
L 3481 0 
L 2906 0 
L 2906 525 
Q 2725 213 2448 61 
Q 2172 -91 1784 -91 
Q 1150 -91 751 415 
Q 353 922 353 1747 
Q 353 2572 751 3078 
Q 1150 3584 1784 3584 
Q 2172 3584 2448 3432 
Q 2725 3281 2906 2969 
z
M 947 1747 
Q 947 1113 1208 752 
Q 1469 391 1925 391 
Q 2381 391 2643 752 
Q 2906 1113 2906 1747 
Q 2906 2381 2643 2742 
Q 2381 3103 1925 3103 
Q 1469 3103 1208 2742 
Q 947 2381 947 1747 
z
" transform="scale(0.015625)"/>
       <path id="DejaVuSans-61" d="M 2194 1759 
Q 1497 1759 1228 1600 
Q 959 1441 959 1056 
Q 959 750 1161 570 
Q 1363 391 1709 391 
Q 2188 391 2477 730 
Q 2766 1069 2766 1631 
L 2766 1759 
L 2194 1759 
z
M 3341 1997 
L 3341 0 
L 2766 0 
L 2766 531 
Q 2569 213 2275 61 
Q 1981 -91 1556 -91 
Q 1019 -91 701 211 
Q 384 513 384 1019 
Q 384 1609 779 1909 
Q 1175 2209 1959 2209 
L 2766 2209 
L 2766 2266 
Q 2766 2663 2505 2880 
Q 2244 3097 1772 3097 
Q 1472 3097 1187 3025 
Q 903 2953 641 2809 
L 641 3341 
Q 956 3463 1253 3523 
Q 1550 3584 1831 3584 
Q 2591 3584 2966 3190 
Q 3341 2797 3341 1997 
z
" transform="scale(0.015625)"/>
       <path id="DejaVuSans-66" d="M 2375 4863 
L 2375 4384 
L 1825 4384 
Q 1516 4384 1395 4259 
Q 1275 4134 1275 3809 
L 1275 3500 
L 2222 3500 
L 2222 3053 
L 1275 3053 
L 1275 0 
L 697 0 
L 697 3053 
L 147 3053 
L 147 3500 
L 697 3500 
L 697 3744 
Q 697 4328 969 4595 
Q 1241 4863 1831 4863 
L 2375 4863 
z
" transform="scale(0.015625)"/>
       <path id="DejaVuSans-67" d="M 2906 1791 
Q 2906 2416 2648 2759 
Q 2391 3103 1925 3103 
Q 1463 3103 1205 2759 
Q 947 2416 947 1791 
Q 947 1169 1205 825 
Q 1463 481 1925 481 
Q 2391 481 2648 825 
Q 2906 1169 2906 1791 
z
M 3481 434 
Q 3481 -459 3084 -895 
Q 2688 -1331 1869 -1331 
Q 1566 -1331 1297 -1286 
Q 1028 -1241 775 -1147 
L 775 -588 
Q 1028 -725 1275 -790 
Q 1522 -856 1778 -856 
Q 2344 -856 2625 -561 
Q 2906 -266 2906 331 
L 2906 616 
Q 2728 306 2450 153 
Q 2172 0 1784 0 
Q 1141 0 747 490 
Q 353 981 353 1791 
Q 353 2603 747 3093 
Q 1141 3584 1784 3584 
Q 2172 3584 2450 3431 
Q 2728 3278 2906 2969 
L 2906 3500 
L 3481 3500 
L 3481 434 
z
" transform="scale(0.015625)"/>
       <path id="DejaVuSans-68" d="M 3513 2113 
L 3513 0 
L 2938 0 
L 2938 2094 
Q 2938 2591 2744 2837 
Q 2550 3084 2163 3084 
Q 1697 3084 1428 2787 
Q 1159 2491 1159 1978 
L 1159 0 
L 581 0 
L 581 4863 
L 1159 4863 
L 1159 2956 
Q 1366 3272 1645 3428 
Q 1925 3584 2291 3584 
Q 2894 3584 3203 3211 
Q 3513 2838 3513 2113 
z
" transform="scale(0.015625)"/>
       <path id="DejaVuSans-6d" d="M 3328 2828 
Q 3544 3216 3844 3400 
Q 4144 3584 4550 3584 
Q 5097 3584 5394 3201 
Q 5691 2819 5691 2113 
L 5691 0 
L 5113 0 
L 5113 2094 
Q 5113 2597 4934 2840 
Q 4756 3084 4391 3084 
Q 3944 3084 3684 2787 
Q 3425 2491 3425 1978 
L 3425 0 
L 2847 0 
L 2847 2094 
Q 2847 2600 2669 2842 
Q 2491 3084 2119 3084 
Q 1678 3084 1418 2786 
Q 1159 2488 1159 1978 
L 1159 0 
L 581 0 
L 581 3500 
L 1159 3500 
L 1159 2956 
Q 1356 3278 1631 3431 
Q 1906 3584 2284 3584 
Q 2666 3584 2933 3390 
Q 3200 3197 3328 2828 
z
" transform="scale(0.015625)"/>
       <path id="DejaVuSans-75" d="M 544 1381 
L 544 3500 
L 1119 3500 
L 1119 1403 
Q 1119 906 1312 657 
Q 1506 409 1894 409 
Q 2359 409 2629 706 
Q 2900 1003 2900 1516 
L 2900 3500 
L 3475 3500 
L 3475 0 
L 2900 0 
L 2900 538 
Q 2691 219 2414 64 
Q 2138 -91 1772 -91 
Q 1169 -91 856 284 
Q 544 659 544 1381 
z
M 1991 3584 
L 1991 3584 
z
" transform="scale(0.015625)"/>
      </defs>
      <use xlink:href="#DejaVuSans-4d"/>
      <use xlink:href="#DejaVuSans-65" x="86.279297"/>
      <use xlink:href="#DejaVuSans-64" x="147.802734"/>
      <use xlink:href="#DejaVuSans-69" x="211.279297"/>
      <use xlink:href="#DejaVuSans-61" x="239.0625"/>
      <use xlink:href="#DejaVuSans-6e" x="300.341797"/>
      <use xlink:href="#DejaVuSans-20" x="363.720703"/>
      <use xlink:href="#DejaVuSans-66" x="395.507812"/>
      <use xlink:href="#DejaVuSans-69" x="430.712891"/>
      <use xlink:href="#DejaVuSans-6c" x="458.496094"/>
      <use xlink:href="#DejaVuSans-74" x="486.279297"/>
      <use xlink:href="#DejaVuSans-65" x="525.488281"/>
      <use xlink:href="#DejaVuSans-72" x="587.011719"/>
      <use xlink:href="#DejaVuSans-65" x="625.875"/>
      <use xlink:href="#DejaVuSans-64" x="687.398438"/>
      <use xlink:href="#DejaVuSans-20" x="750.875"/>
      <use xlink:href="#DejaVuSans-65" x="782.662109"/>
      <use xlink:href="#DejaVuSans-6e" x="844.185547"/>
      <use xlink:href="#DejaVuSans-63" x="907.564453"/>
      <use xlink:href="#DejaVuSans-72" x="962.544922"/>
      <use xlink:href="#DejaVuSans-79" x="1003.658203"/>
      <use xlink:href="#DejaVuSans-70" x="1062.837891"/>
      <use xlink:href="#DejaVuSans-74" x="1126.314453"/>
      <use xlink:href="#DejaVuSans-69" x="1165.523438"/>
      <use xlink:href="#DejaVuSans-6f" x="1193.306641"/>
      <use xlink:href="#DejaVuSans-6e" x="1254.488281"/>
      <use xlink:href="#DejaVuSans-20" x="1317.867188"/>
      <use xlink:href="#DejaVuSans-61" x="1349.654297"/>
      <use xlink:href="#DejaVuSans-6c" x="1410.933594"/>
      <use xlink:href="#DejaVuSans-67" x="1438.716797"/>
      <use xlink:href="#DejaVuSans-6f" x="1502.193359"/>
      <use xlink:href="#DejaVuSans-72" x="1563.375"/>
      <use xlink:href="#DejaVuSans-69" x="1604.488281"/>
      <use xlink:href="#DejaVuSans-74" x="1632.271484"/>
      <use xlink:href="#DejaVuSans-68" x="1671.480469"/>
      <use xlink:href="#DejaVuSans-6d" x="1734.859375"/>
      <use xlink:href="#DejaVuSans-20" x="1832.271484"/>
      <use xlink:href="#DejaVuSans-63" x="1864.058594"/>
      <use xlink:href="#DejaVuSans-79" x="1919.039062"/>
      <use xlink:href="#DejaVuSans-63" x="1978.21875"/>
      <use xlink:href="#DejaVuSans-6c" x="2033.199219"/>
      <use xlink:href="#DejaVuSans-65" x="2060.982422"/>
      <use xlink:href="#DejaVuSans-73" x="2122.505859"/>
      <use xlink:href="#DejaVuSans-20" x="2174.605469"/>
      <use xlink:href="#DejaVuSans-70" x="2206.392578"/>
      <use xlink:href="#DejaVuSans-65" x="2269.869141"/>
      <use xlink:href="#DejaVuSans-72" x="2331.392578"/>
      <use xlink:href="#DejaVuSans-20" x="2372.505859"/>
      <use xlink:href="#DejaVuSans-72" x="2404.292969"/>
      <use xlink:href="#DejaVuSans-75" x="2445.40625"/>
      <use xlink:href="#DejaVuSans-6e" x="2508.785156"/>
     </g>
    </g>
   </g>
  </g>
 </g>
 <defs>
  <clipPath id="p400ed8ec19">
   <rect x="57.6" y="41.472" width="357.12" height="266.112"/>
  </clipPath>
 </defs>
</svg>
