<?xml version="1.0" encoding="utf-8" standalone="no"?>
<!DOCTYPE svg PUBLIC "-//W3C//DTD SVG 1.1//EN"
  "http://www.w3.org/Graphics/SVG/1.1/DTD/svg11.dtd">
<svg xmlns:xlink="http://www.w3.org/1999/xlink" width="460.8pt" height="345.6pt" viewBox="0 0 460.8 345.6" xmlns="http://www.w3.org/2000/svg" version="1.1">
 <metadata>
  <rdf:RDF xmlns:dc="http://purl.org/dc/elements/1.1/" xmlns:cc="http://creativecommons.org/ns#" xmlns:rdf="http://www.w3.org/1999/02/22-rdf-syntax-ns#">
   <cc:Work>
    <dc:type rdf:resource="http://purl.org/dc/dcmitype/StillImage"/>
    <dc:date>2023-11-07T15:59:54.089709</dc:date>
    <dc:format>image/svg+xml</dc:format>
    <dc:creator>
     <cc:Agent>
      <dc:title>Matplotlib v3.7.3, https://matplotlib.org/</dc:title>
     </cc:Agent>
    </dc:creator>
   </cc:Work>
  </rdf:RDF>
 </metadata>
 <defs>
  <style type="text/css">*{stroke-linejoin: round; stroke-linecap: butt}</style>
 </defs>
 <g id="figure_1">
  <g id="patch_1">
   <path d="M 0 345.6 
L 460.8 345.6 
L 460.8 0 
L 0 0 
z
" style="fill: #ffffff"/>
  </g>
  <g id="axes_1">
   <g id="patch_2">
    <path d="M 57.6 307.584 
L 414.72 307.584 
L 414.72 41.472 
L 57.6 41.472 
z
" style="fill: #ffffff"/>
   </g>
   <g id="matplotlib.axis_1">
    <g id="xtick_1">
     <g id="line2d_1">
      <defs>
       <path id="m2c4834d5a4" d="M 0 0 
L 0 3.5 
" style="stroke: #000000; stroke-width: 0.8"/>
      </defs>
      <g>
       <use xlink:href="#m2c4834d5a4" x="73.832727" y="307.584" style="stroke: #000000; stroke-width: 0.8"/>
      </g>
     </g>
     <g id="text_1">
      <!-- 0 -->
      <g transform="translate(70.651477 322.182437) scale(0.1 -0.1)">
       <defs>
        <path id="DejaVuSans-30" d="M 2034 4250 
Q 1547 4250 1301 3770 
Q 1056 3291 1056 2328 
Q 1056 1369 1301 889 
Q 1547 409 2034 409 
Q 2525 409 2770 889 
Q 3016 1369 3016 2328 
Q 3016 3291 2770 3770 
Q 2525 4250 2034 4250 
z
M 2034 4750 
Q 2819 4750 3233 4129 
Q 3647 3509 3647 2328 
Q 3647 1150 3233 529 
Q 2819 -91 2034 -91 
Q 1250 -91 836 529 
Q 422 1150 422 2328 
Q 422 3509 836 4129 
Q 1250 4750 2034 4750 
z
" transform="scale(0.015625)"/>
       </defs>
       <use xlink:href="#DejaVuSans-30"/>
      </g>
     </g>
    </g>
    <g id="xtick_2">
     <g id="line2d_2">
      <g>
       <use xlink:href="#m2c4834d5a4" x="137.241818" y="307.584" style="stroke: #000000; stroke-width: 0.8"/>
      </g>
     </g>
     <g id="text_2">
      <!-- 200 -->
      <g transform="translate(127.698068 322.182437) scale(0.1 -0.1)">
       <defs>
        <path id="DejaVuSans-32" d="M 1228 531 
L 3431 531 
L 3431 0 
L 469 0 
L 469 531 
Q 828 903 1448 1529 
Q 2069 2156 2228 2338 
Q 2531 2678 2651 2914 
Q 2772 3150 2772 3378 
Q 2772 3750 2511 3984 
Q 2250 4219 1831 4219 
Q 1534 4219 1204 4116 
Q 875 4013 500 3803 
L 500 4441 
Q 881 4594 1212 4672 
Q 1544 4750 1819 4750 
Q 2544 4750 2975 4387 
Q 3406 4025 3406 3419 
Q 3406 3131 3298 2873 
Q 3191 2616 2906 2266 
Q 2828 2175 2409 1742 
Q 1991 1309 1228 531 
z
" transform="scale(0.015625)"/>
       </defs>
       <use xlink:href="#DejaVuSans-32"/>
       <use xlink:href="#DejaVuSans-30" x="63.623047"/>
       <use xlink:href="#DejaVuSans-30" x="127.246094"/>
      </g>
     </g>
    </g>
    <g id="xtick_3">
     <g id="line2d_3">
      <g>
       <use xlink:href="#m2c4834d5a4" x="200.650909" y="307.584" style="stroke: #000000; stroke-width: 0.8"/>
      </g>
     </g>
     <g id="text_3">
      <!-- 400 -->
      <g transform="translate(191.107159 322.182437) scale(0.1 -0.1)">
       <defs>
        <path id="DejaVuSans-34" d="M 2419 4116 
L 825 1625 
L 2419 1625 
L 2419 4116 
z
M 2253 4666 
L 3047 4666 
L 3047 1625 
L 3713 1625 
L 3713 1100 
L 3047 1100 
L 3047 0 
L 2419 0 
L 2419 1100 
L 313 1100 
L 313 1709 
L 2253 4666 
z
" transform="scale(0.015625)"/>
       </defs>
       <use xlink:href="#DejaVuSans-34"/>
       <use xlink:href="#DejaVuSans-30" x="63.623047"/>
       <use xlink:href="#DejaVuSans-30" x="127.246094"/>
      </g>
     </g>
    </g>
    <g id="xtick_4">
     <g id="line2d_4">
      <g>
       <use xlink:href="#m2c4834d5a4" x="264.06" y="307.584" style="stroke: #000000; stroke-width: 0.8"/>
      </g>
     </g>
     <g id="text_4">
      <!-- 600 -->
      <g transform="translate(254.51625 322.182437) scale(0.1 -0.1)">
       <defs>
        <path id="DejaVuSans-36" d="M 2113 2584 
Q 1688 2584 1439 2293 
Q 1191 2003 1191 1497 
Q 1191 994 1439 701 
Q 1688 409 2113 409 
Q 2538 409 2786 701 
Q 3034 994 3034 1497 
Q 3034 2003 2786 2293 
Q 2538 2584 2113 2584 
z
M 3366 4563 
L 3366 3988 
Q 3128 4100 2886 4159 
Q 2644 4219 2406 4219 
Q 1781 4219 1451 3797 
Q 1122 3375 1075 2522 
Q 1259 2794 1537 2939 
Q 1816 3084 2150 3084 
Q 2853 3084 3261 2657 
Q 3669 2231 3669 1497 
Q 3669 778 3244 343 
Q 2819 -91 2113 -91 
Q 1303 -91 875 529 
Q 447 1150 447 2328 
Q 447 3434 972 4092 
Q 1497 4750 2381 4750 
Q 2619 4750 2861 4703 
Q 3103 4656 3366 4563 
z
" transform="scale(0.015625)"/>
       </defs>
       <use xlink:href="#DejaVuSans-36"/>
       <use xlink:href="#DejaVuSans-30" x="63.623047"/>
       <use xlink:href="#DejaVuSans-30" x="127.246094"/>
      </g>
     </g>
    </g>
    <g id="xtick_5">
     <g id="line2d_5">
      <g>
       <use xlink:href="#m2c4834d5a4" x="327.469091" y="307.584" style="stroke: #000000; stroke-width: 0.8"/>
      </g>
     </g>
     <g id="text_5">
      <!-- 800 -->
      <g transform="translate(317.925341 322.182437) scale(0.1 -0.1)">
       <defs>
        <path id="DejaVuSans-38" d="M 2034 2216 
Q 1584 2216 1326 1975 
Q 1069 1734 1069 1313 
Q 1069 891 1326 650 
Q 1584 409 2034 409 
Q 2484 409 2743 651 
Q 3003 894 3003 1313 
Q 3003 1734 2745 1975 
Q 2488 2216 2034 2216 
z
M 1403 2484 
Q 997 2584 770 2862 
Q 544 3141 544 3541 
Q 544 4100 942 4425 
Q 1341 4750 2034 4750 
Q 2731 4750 3128 4425 
Q 3525 4100 3525 3541 
Q 3525 3141 3298 2862 
Q 3072 2584 2669 2484 
Q 3125 2378 3379 2068 
Q 3634 1759 3634 1313 
Q 3634 634 3220 271 
Q 2806 -91 2034 -91 
Q 1263 -91 848 271 
Q 434 634 434 1313 
Q 434 1759 690 2068 
Q 947 2378 1403 2484 
z
M 1172 3481 
Q 1172 3119 1398 2916 
Q 1625 2713 2034 2713 
Q 2441 2713 2670 2916 
Q 2900 3119 2900 3481 
Q 2900 3844 2670 4047 
Q 2441 4250 2034 4250 
Q 1625 4250 1398 4047 
Q 1172 3844 1172 3481 
z
" transform="scale(0.015625)"/>
       </defs>
       <use xlink:href="#DejaVuSans-38"/>
       <use xlink:href="#DejaVuSans-30" x="63.623047"/>
       <use xlink:href="#DejaVuSans-30" x="127.246094"/>
      </g>
     </g>
    </g>
    <g id="xtick_6">
     <g id="line2d_6">
      <g>
       <use xlink:href="#m2c4834d5a4" x="390.878182" y="307.584" style="stroke: #000000; stroke-width: 0.8"/>
      </g>
     </g>
     <g id="text_6">
      <!-- 1000 -->
      <g transform="translate(378.153182 322.182437) scale(0.1 -0.1)">
       <defs>
        <path id="DejaVuSans-31" d="M 794 531 
L 1825 531 
L 1825 4091 
L 703 3866 
L 703 4441 
L 1819 4666 
L 2450 4666 
L 2450 531 
L 3481 531 
L 3481 0 
L 794 0 
L 794 531 
z
" transform="scale(0.015625)"/>
       </defs>
       <use xlink:href="#DejaVuSans-31"/>
       <use xlink:href="#DejaVuSans-30" x="63.623047"/>
       <use xlink:href="#DejaVuSans-30" x="127.246094"/>
       <use xlink:href="#DejaVuSans-30" x="190.869141"/>
      </g>
     </g>
    </g>
    <g id="text_7">
     <!-- n -->
     <g transform="translate(232.99125 335.860562) scale(0.1 -0.1)">
      <defs>
       <path id="DejaVuSans-6e" d="M 3513 2113 
L 3513 0 
L 2938 0 
L 2938 2094 
Q 2938 2591 2744 2837 
Q 2550 3084 2163 3084 
Q 1697 3084 1428 2787 
Q 1159 2491 1159 1978 
L 1159 0 
L 581 0 
L 581 3500 
L 1159 3500 
L 1159 2956 
Q 1366 3272 1645 3428 
Q 1925 3584 2291 3584 
Q 2894 3584 3203 3211 
Q 3513 2838 3513 2113 
z
" transform="scale(0.015625)"/>
      </defs>
      <use xlink:href="#DejaVuSans-6e"/>
     </g>
    </g>
   </g>
   <g id="matplotlib.axis_2">
    <g id="ytick_1">
     <g id="line2d_7">
      <defs>
       <path id="m23add67e63" d="M 0 0 
L -3.5 0 
" style="stroke: #000000; stroke-width: 0.8"/>
      </defs>
      <g>
       <use xlink:href="#m23add67e63" x="57.6" y="288.876522" style="stroke: #000000; stroke-width: 0.8"/>
      </g>
     </g>
     <g id="text_8">
      <!-- 200 -->
      <g transform="translate(31.5125 292.67574) scale(0.1 -0.1)">
       <use xlink:href="#DejaVuSans-32"/>
       <use xlink:href="#DejaVuSans-30" x="63.623047"/>
       <use xlink:href="#DejaVuSans-30" x="127.246094"/>
      </g>
     </g>
    </g>
    <g id="ytick_2">
     <g id="line2d_8">
      <g>
       <use xlink:href="#m23add67e63" x="57.6" y="258.824348" style="stroke: #000000; stroke-width: 0.8"/>
      </g>
     </g>
     <g id="text_9">
      <!-- 400 -->
      <g transform="translate(31.5125 262.623567) scale(0.1 -0.1)">
       <use xlink:href="#DejaVuSans-34"/>
       <use xlink:href="#DejaVuSans-30" x="63.623047"/>
       <use xlink:href="#DejaVuSans-30" x="127.246094"/>
      </g>
     </g>
    </g>
    <g id="ytick_3">
     <g id="line2d_9">
      <g>
       <use xlink:href="#m23add67e63" x="57.6" y="228.772174" style="stroke: #000000; stroke-width: 0.8"/>
      </g>
     </g>
     <g id="text_10">
      <!-- 600 -->
      <g transform="translate(31.5125 232.571393) scale(0.1 -0.1)">
       <use xlink:href="#DejaVuSans-36"/>
       <use xlink:href="#DejaVuSans-30" x="63.623047"/>
       <use xlink:href="#DejaVuSans-30" x="127.246094"/>
      </g>
     </g>
    </g>
    <g id="ytick_4">
     <g id="line2d_10">
      <g>
       <use xlink:href="#m23add67e63" x="57.6" y="198.72" style="stroke: #000000; stroke-width: 0.8"/>
      </g>
     </g>
     <g id="text_11">
      <!-- 800 -->
      <g transform="translate(31.5125 202.519219) scale(0.1 -0.1)">
       <use xlink:href="#DejaVuSans-38"/>
       <use xlink:href="#DejaVuSans-30" x="63.623047"/>
       <use xlink:href="#DejaVuSans-30" x="127.246094"/>
      </g>
     </g>
    </g>
    <g id="ytick_5">
     <g id="line2d_11">
      <g>
       <use xlink:href="#m23add67e63" x="57.6" y="168.667826" style="stroke: #000000; stroke-width: 0.8"/>
      </g>
     </g>
     <g id="text_12">
      <!-- 1000 -->
      <g transform="translate(25.15 172.467045) scale(0.1 -0.1)">
       <use xlink:href="#DejaVuSans-31"/>
       <use xlink:href="#DejaVuSans-30" x="63.623047"/>
       <use xlink:href="#DejaVuSans-30" x="127.246094"/>
       <use xlink:href="#DejaVuSans-30" x="190.869141"/>
      </g>
     </g>
    </g>
    <g id="ytick_6">
     <g id="line2d_12">
      <g>
       <use xlink:href="#m23add67e63" x="57.6" y="138.615652" style="stroke: #000000; stroke-width: 0.8"/>
      </g>
     </g>
     <g id="text_13">
      <!-- 1200 -->
      <g transform="translate(25.15 142.414871) scale(0.1 -0.1)">
       <use xlink:href="#DejaVuSans-31"/>
       <use xlink:href="#DejaVuSans-32" x="63.623047"/>
       <use xlink:href="#DejaVuSans-30" x="127.246094"/>
       <use xlink:href="#DejaVuSans-30" x="190.869141"/>
      </g>
     </g>
    </g>
    <g id="ytick_7">
     <g id="line2d_13">
      <g>
       <use xlink:href="#m23add67e63" x="57.6" y="108.563478" style="stroke: #000000; stroke-width: 0.8"/>
      </g>
     </g>
     <g id="text_14">
      <!-- 1400 -->
      <g transform="translate(25.15 112.362697) scale(0.1 -0.1)">
       <use xlink:href="#DejaVuSans-31"/>
       <use xlink:href="#DejaVuSans-34" x="63.623047"/>
       <use xlink:href="#DejaVuSans-30" x="127.246094"/>
       <use xlink:href="#DejaVuSans-30" x="190.869141"/>
      </g>
     </g>
    </g>
    <g id="ytick_8">
     <g id="line2d_14">
      <g>
       <use xlink:href="#m23add67e63" x="57.6" y="78.511304" style="stroke: #000000; stroke-width: 0.8"/>
      </g>
     </g>
     <g id="text_15">
      <!-- 1600 -->
      <g transform="translate(25.15 82.310523) scale(0.1 -0.1)">
       <use xlink:href="#DejaVuSans-31"/>
       <use xlink:href="#DejaVuSans-36" x="63.623047"/>
       <use xlink:href="#DejaVuSans-30" x="127.246094"/>
       <use xlink:href="#DejaVuSans-30" x="190.869141"/>
      </g>
     </g>
    </g>
    <g id="ytick_9">
     <g id="line2d_15">
      <g>
       <use xlink:href="#m23add67e63" x="57.6" y="48.45913" style="stroke: #000000; stroke-width: 0.8"/>
      </g>
     </g>
     <g id="text_16">
      <!-- 1800 -->
      <g transform="translate(25.15 52.258349) scale(0.1 -0.1)">
       <use xlink:href="#DejaVuSans-31"/>
       <use xlink:href="#DejaVuSans-38" x="63.623047"/>
       <use xlink:href="#DejaVuSans-30" x="127.246094"/>
       <use xlink:href="#DejaVuSans-30" x="190.869141"/>
      </g>
     </g>
    </g>
    <g id="text_17">
     <!-- Cycles -->
     <g transform="translate(19.070312 190.798312) rotate(-90) scale(0.1 -0.1)">
      <defs>
       <path id="DejaVuSans-43" d="M 4122 4306 
L 4122 3641 
Q 3803 3938 3442 4084 
Q 3081 4231 2675 4231 
Q 1875 4231 1450 3742 
Q 1025 3253 1025 2328 
Q 1025 1406 1450 917 
Q 1875 428 2675 428 
Q 3081 428 3442 575 
Q 3803 722 4122 1019 
L 4122 359 
Q 3791 134 3420 21 
Q 3050 -91 2638 -91 
Q 1578 -91 968 557 
Q 359 1206 359 2328 
Q 359 3453 968 4101 
Q 1578 4750 2638 4750 
Q 3056 4750 3426 4639 
Q 3797 4528 4122 4306 
z
" transform="scale(0.015625)"/>
       <path id="DejaVuSans-79" d="M 2059 -325 
Q 1816 -950 1584 -1140 
Q 1353 -1331 966 -1331 
L 506 -1331 
L 506 -850 
L 844 -850 
Q 1081 -850 1212 -737 
Q 1344 -625 1503 -206 
L 1606 56 
L 191 3500 
L 800 3500 
L 1894 763 
L 2988 3500 
L 3597 3500 
L 2059 -325 
z
" transform="scale(0.015625)"/>
       <path id="DejaVuSans-63" d="M 3122 3366 
L 3122 2828 
Q 2878 2963 2633 3030 
Q 2388 3097 2138 3097 
Q 1578 3097 1268 2742 
Q 959 2388 959 1747 
Q 959 1106 1268 751 
Q 1578 397 2138 397 
Q 2388 397 2633 464 
Q 2878 531 3122 666 
L 3122 134 
Q 2881 22 2623 -34 
Q 2366 -91 2075 -91 
Q 1284 -91 818 406 
Q 353 903 353 1747 
Q 353 2603 823 3093 
Q 1294 3584 2113 3584 
Q 2378 3584 2631 3529 
Q 2884 3475 3122 3366 
z
" transform="scale(0.015625)"/>
       <path id="DejaVuSans-6c" d="M 603 4863 
L 1178 4863 
L 1178 0 
L 603 0 
L 603 4863 
z
" transform="scale(0.015625)"/>
       <path id="DejaVuSans-65" d="M 3597 1894 
L 3597 1613 
L 953 1613 
Q 991 1019 1311 708 
Q 1631 397 2203 397 
Q 2534 397 2845 478 
Q 3156 559 3463 722 
L 3463 178 
Q 3153 47 2828 -22 
Q 2503 -91 2169 -91 
Q 1331 -91 842 396 
Q 353 884 353 1716 
Q 353 2575 817 3079 
Q 1281 3584 2069 3584 
Q 2775 3584 3186 3129 
Q 3597 2675 3597 1894 
z
M 3022 2063 
Q 3016 2534 2758 2815 
Q 2500 3097 2075 3097 
Q 1594 3097 1305 2825 
Q 1016 2553 972 2059 
L 3022 2063 
z
" transform="scale(0.015625)"/>
       <path id="DejaVuSans-73" d="M 2834 3397 
L 2834 2853 
Q 2591 2978 2328 3040 
Q 2066 3103 1784 3103 
Q 1356 3103 1142 2972 
Q 928 2841 928 2578 
Q 928 2378 1081 2264 
Q 1234 2150 1697 2047 
L 1894 2003 
Q 2506 1872 2764 1633 
Q 3022 1394 3022 966 
Q 3022 478 2636 193 
Q 2250 -91 1575 -91 
Q 1294 -91 989 -36 
Q 684 19 347 128 
L 347 722 
Q 666 556 975 473 
Q 1284 391 1588 391 
Q 1994 391 2212 530 
Q 2431 669 2431 922 
Q 2431 1156 2273 1281 
Q 2116 1406 1581 1522 
L 1381 1569 
Q 847 1681 609 1914 
Q 372 2147 372 2553 
Q 372 3047 722 3315 
Q 1072 3584 1716 3584 
Q 2034 3584 2315 3537 
Q 2597 3491 2834 3397 
z
" transform="scale(0.015625)"/>
      </defs>
      <use xlink:href="#DejaVuSans-43"/>
      <use xlink:href="#DejaVuSans-79" x="69.824219"/>
      <use xlink:href="#DejaVuSans-63" x="129.003906"/>
      <use xlink:href="#DejaVuSans-6c" x="183.984375"/>
      <use xlink:href="#DejaVuSans-65" x="211.767578"/>
      <use xlink:href="#DejaVuSans-73" x="273.291016"/>
     </g>
    </g>
   </g>
   <g id="line2d_16">
    <path d="M 73.832727 287.223652 
L 74.149773 286.622609 
L 75.100909 286.622609 
L 75.417955 288.726261 
L 76.686136 288.726261 
L 77.003182 288.425739 
L 77.320227 288.425739 
L 77.637273 288.576 
L 77.954318 289.477565 
L 78.271364 289.477565 
L 78.588409 288.726261 
L 78.905455 286.322087 
L 80.490682 286.322087 
L 80.807727 289.327304 
L 81.124773 289.327304 
L 81.441818 289.026783 
L 81.758864 286.322087 
L 82.075909 286.322087 
L 82.392955 288.425739 
L 82.71 288.425739 
L 83.027045 283.917913 
L 83.661136 283.917913 
L 83.978182 268.290783 
L 84.295227 268.290783 
L 84.612273 287.524174 
L 84.929318 287.524174 
L 85.246364 287.824696 
L 85.563409 289.327304 
L 86.514545 289.327304 
L 86.831591 289.627826 
L 87.148636 289.627826 
L 87.465682 289.327304 
L 87.782727 289.327304 
L 88.099773 287.223652 
L 88.733864 287.223652 
L 89.050909 286.622609 
L 89.367955 286.622609 
L 89.685 287.524174 
L 90.636136 287.524174 
L 90.953182 288.125217 
L 91.270227 288.125217 
L 91.587273 288.425739 
L 95.074773 288.425739 
L 95.391818 290.829913 
L 95.708864 291.130435 
L 96.025909 290.829913 
L 96.342955 290.22887 
L 96.66 290.22887 
L 96.977045 289.627826 
L 97.294091 286.322087 
L 97.611136 286.322087 
L 97.928182 284.368696 
L 98.245227 284.218435 
L 98.562273 284.218435 
L 98.879318 287.373913 
L 99.196364 287.524174 
L 99.830455 287.524174 
L 100.1475 287.824696 
L 100.464545 288.425739 
L 100.781591 288.425739 
L 101.098636 286.322087 
L 101.732727 286.322087 
L 102.049773 286.92313 
L 102.366818 286.92313 
L 102.683864 286.322087 
L 103.000909 286.322087 
L 103.317955 283.917913 
L 103.952045 283.917913 
L 104.269091 284.218435 
L 104.586136 289.327304 
L 104.903182 289.327304 
L 105.220227 289.026783 
L 105.537273 286.622609 
L 105.854318 286.622609 
L 106.171364 287.223652 
L 106.488409 287.223652 
L 106.805455 287.524174 
L 107.1225 288.125217 
L 107.439545 288.125217 
L 108.073636 287.223652 
L 108.390682 287.674435 
L 108.707727 287.223652 
L 109.341818 287.223652 
L 109.658864 290.980174 
L 110.292955 290.980174 
L 110.61 289.778087 
L 110.927045 289.026783 
L 111.244091 289.026783 
L 111.878182 289.627826 
L 112.195227 290.980174 
L 112.829318 290.980174 
L 113.146364 291.881739 
L 113.463409 291.881739 
L 113.780455 291.581217 
L 114.0975 289.928348 
L 114.731591 289.928348 
L 115.048636 287.524174 
L 115.682727 287.524174 
L 115.999773 286.021565 
L 116.316818 286.021565 
L 116.633864 286.322087 
L 116.950909 286.322087 
L 117.267955 287.824696 
L 117.585 288.726261 
L 117.902045 288.726261 
L 118.219091 288.425739 
L 118.536136 288.425739 
L 119.170227 289.477565 
L 119.487273 289.627826 
L 119.804318 289.477565 
L 120.121364 289.477565 
L 120.438409 289.327304 
L 120.755455 289.477565 
L 121.0725 289.177043 
L 121.389545 265.586087 
L 121.706591 265.586087 
L 122.023636 288.876522 
L 122.340682 289.477565 
L 122.657727 289.327304 
L 123.291818 289.327304 
L 123.608864 285.12 
L 123.925909 270.544696 
L 124.242955 266.788174 
L 124.56 266.788174 
L 124.877045 278.358261 
L 125.194091 283.917913 
L 126.145227 283.917913 
L 126.462273 286.322087 
L 126.779318 286.322087 
L 127.096364 288.275478 
L 127.413409 288.425739 
L 127.730455 288.425739 
L 128.0475 287.223652 
L 128.364545 287.223652 
L 128.681591 289.327304 
L 129.315682 289.327304 
L 129.632727 287.824696 
L 129.949773 287.824696 
L 130.266818 288.425739 
L 130.583864 288.726261 
L 130.900909 288.425739 
L 131.217955 288.576 
L 131.535 288.425739 
L 131.852045 286.322087 
L 132.803182 286.322087 
L 133.120227 286.622609 
L 133.437273 288.125217 
L 133.754318 288.125217 
L 134.388409 287.524174 
L 136.290682 287.524174 
L 136.607727 287.223652 
L 136.924773 285.12 
L 137.241818 285.12 
L 137.558864 287.223652 
L 137.875909 287.524174 
L 138.192955 287.524174 
L 138.51 287.824696 
L 138.827045 290.078609 
L 139.144091 290.37913 
L 139.461136 290.37913 
L 140.729318 289.327304 
L 141.046364 285.420522 
L 141.363409 285.420522 
L 141.9975 287.524174 
L 142.314545 287.674435 
L 142.948636 287.674435 
L 143.265682 287.524174 
L 143.582727 287.524174 
L 143.899773 286.322087 
L 144.216818 286.322087 
L 144.533864 289.627826 
L 144.850909 289.627826 
L 145.167955 287.824696 
L 145.485 287.524174 
L 146.436136 287.524174 
L 146.753182 291.581217 
L 147.387273 291.581217 
L 147.704318 289.327304 
L 148.021364 288.876522 
L 148.338409 286.622609 
L 148.655455 286.622609 
L 148.9725 284.518957 
L 149.289545 284.518957 
L 149.606591 284.068174 
L 149.923636 284.068174 
L 150.240682 286.322087 
L 150.557727 286.322087 
L 150.874773 286.622609 
L 151.191818 288.125217 
L 151.508864 288.726261 
L 152.142955 287.524174 
L 152.46 287.524174 
L 152.777045 287.824696 
L 153.094091 289.327304 
L 154.679318 289.327304 
L 154.996364 288.726261 
L 155.313409 288.726261 
L 155.9475 289.778087 
L 156.264545 289.627826 
L 156.581591 289.627826 
L 156.898636 289.177043 
L 157.215682 289.026783 
L 157.532727 288.425739 
L 157.849773 288.425739 
L 158.166818 290.22887 
L 158.483864 290.22887 
L 158.800909 289.928348 
L 159.117955 287.674435 
L 159.435 287.674435 
L 159.752045 288.425739 
L 160.069091 288.576 
L 160.386136 288.576 
L 160.703182 288.726261 
L 161.337273 288.726261 
L 161.654318 288.425739 
L 161.971364 288.425739 
L 162.288409 287.824696 
L 162.605455 287.674435 
L 162.9225 286.322087 
L 164.190682 286.322087 
L 164.507727 286.021565 
L 165.141818 286.021565 
L 165.458864 286.322087 
L 165.775909 289.026783 
L 166.092955 289.026783 
L 166.41 289.327304 
L 166.727045 290.078609 
L 167.044091 290.22887 
L 167.361136 290.22887 
L 167.678182 286.622609 
L 167.995227 286.322087 
L 169.580455 286.322087 
L 169.8975 286.021565 
L 170.214545 286.322087 
L 170.848636 286.322087 
L 171.165682 286.622609 
L 171.482727 290.22887 
L 172.116818 290.22887 
L 172.433864 288.726261 
L 172.750909 53.568 
L 173.067955 53.568 
L 173.385 252.813913 
L 173.702045 288.726261 
L 174.019091 290.22887 
L 174.336136 290.22887 
L 174.653182 289.327304 
L 175.287273 289.327304 
L 175.604318 290.22887 
L 175.921364 290.37913 
L 176.238409 290.22887 
L 176.555455 287.824696 
L 176.8725 287.824696 
L 177.189545 287.524174 
L 178.774773 287.524174 
L 179.091818 288.726261 
L 179.408864 288.726261 
L 179.725909 287.524174 
L 180.042955 286.92313 
L 180.677045 286.92313 
L 180.994091 289.026783 
L 181.311136 288.726261 
L 181.628182 288.726261 
L 181.945227 288.425739 
L 182.262273 287.824696 
L 182.579318 287.824696 
L 182.896364 288.425739 
L 183.213409 288.726261 
L 183.530455 290.078609 
L 183.8475 290.22887 
L 184.164545 290.22887 
L 184.481591 289.477565 
L 184.798636 289.327304 
L 185.115682 289.026783 
L 185.432727 285.420522 
L 186.066818 285.420522 
L 186.383864 287.824696 
L 187.017955 287.824696 
L 187.335 288.275478 
L 187.652045 288.275478 
L 188.286136 287.524174 
L 188.603182 287.824696 
L 188.920227 288.576 
L 189.237273 288.726261 
L 189.554318 288.726261 
L 190.188409 288.125217 
L 190.505455 288.125217 
L 190.8225 287.974957 
L 191.139545 288.125217 
L 191.456591 290.078609 
L 192.407727 290.078609 
L 192.724773 290.529391 
L 193.358864 289.477565 
L 193.675909 289.477565 
L 193.992955 289.327304 
L 194.627045 288.726261 
L 194.944091 286.021565 
L 195.261136 286.021565 
L 195.578182 287.223652 
L 195.895227 287.974957 
L 196.212273 287.974957 
L 196.529318 288.726261 
L 196.846364 287.824696 
L 197.163409 286.322087 
L 197.480455 286.322087 
L 197.7975 288.726261 
L 198.114545 288.726261 
L 198.431591 288.876522 
L 198.748636 289.327304 
L 199.065682 289.477565 
L 200.016818 289.477565 
L 200.333864 289.627826 
L 200.650909 289.627826 
L 200.967955 289.327304 
L 201.602045 289.327304 
L 201.919091 289.627826 
L 202.236136 289.627826 
L 202.553182 290.078609 
L 203.821364 290.078609 
L 204.138409 287.824696 
L 204.455455 287.524174 
L 204.7725 284.518957 
L 205.089545 283.917913 
L 206.040682 283.917913 
L 206.357727 284.218435 
L 206.674773 284.218435 
L 206.991818 287.524174 
L 207.308864 287.524174 
L 207.625909 287.824696 
L 207.942955 289.327304 
L 208.26 289.327304 
L 208.894091 288.876522 
L 209.211136 288.726261 
L 209.528182 288.726261 
L 209.845227 288.576 
L 210.162273 288.576 
L 210.479318 289.327304 
L 210.796364 289.327304 
L 211.113409 289.477565 
L 211.430455 289.327304 
L 211.7475 289.477565 
L 212.381591 289.928348 
L 212.698636 289.928348 
L 213.015682 288.425739 
L 213.649773 288.425739 
L 213.966818 286.622609 
L 214.283864 286.322087 
L 214.600909 286.322087 
L 214.917955 288.125217 
L 215.235 288.425739 
L 215.869091 288.425739 
L 216.186136 287.824696 
L 216.503182 287.524174 
L 216.820227 287.524174 
L 217.137273 289.026783 
L 217.454318 289.477565 
L 217.771364 289.477565 
L 218.088409 290.829913 
L 218.7225 290.829913 
L 219.039545 293.83513 
L 219.356591 293.985391 
L 219.673636 293.985391 
L 219.990682 294.285913 
L 221.575909 294.285913 
L 221.892955 294.886957 
L 222.21 295.187478 
L 222.527045 295.187478 
L 222.844091 294.886957 
L 223.161136 290.37913 
L 223.478182 290.22887 
L 223.795227 290.37913 
L 224.112273 290.980174 
L 224.429318 291.130435 
L 224.746364 292.482783 
L 225.063409 292.482783 
L 225.380455 291.881739 
L 226.331591 291.881739 
L 226.648636 292.933565 
L 226.965682 293.083826 
L 227.916818 293.83513 
L 228.233864 293.985391 
L 228.550909 295.187478 
L 229.185 295.187478 
L 229.502045 295.037217 
L 229.819091 293.384348 
L 230.770227 293.384348 
L 231.087273 293.234087 
L 231.404318 293.234087 
L 231.721364 294.586435 
L 232.355455 294.586435 
L 232.6725 294.886957 
L 233.623636 294.886957 
L 233.940682 293.985391 
L 234.574773 293.985391 
L 235.525909 292.633043 
L 235.842955 292.933565 
L 236.16 292.783304 
L 236.794091 293.384348 
L 237.111136 293.985391 
L 237.745227 293.985391 
L 238.062273 293.83513 
L 238.379318 293.985391 
L 238.696364 293.83513 
L 239.013409 293.83513 
L 239.330455 293.68487 
L 239.6475 293.68487 
L 239.964545 294.586435 
L 240.598636 294.586435 
L 240.915682 290.529391 
L 241.232727 290.37913 
L 241.549773 283.31687 
L 241.866818 283.31687 
L 242.183864 283.917913 
L 242.500909 283.917913 
L 243.135 270.845217 
L 243.452045 270.845217 
L 243.769091 283.917913 
L 244.086136 284.218435 
L 244.403182 283.917913 
L 244.720227 284.218435 
L 245.037273 283.917913 
L 245.354318 283.917913 
L 245.671364 283.617391 
L 245.988409 283.617391 
L 246.305455 287.524174 
L 246.6225 287.524174 
L 246.939545 287.674435 
L 247.256591 292.332522 
L 247.890682 293.384348 
L 248.207727 293.384348 
L 248.524773 293.234087 
L 248.841818 293.234087 
L 249.158864 295.187478 
L 249.475909 295.187478 
L 250.11 295.488 
L 250.427045 295.488 
L 250.744091 294.886957 
L 251.061136 293.985391 
L 251.378182 293.68487 
L 251.695227 293.68487 
L 252.012273 290.980174 
L 252.646364 290.980174 
L 252.963409 288.275478 
L 253.280455 288.125217 
L 253.5975 288.275478 
L 253.914545 291.130435 
L 254.231591 291.130435 
L 254.548636 291.280696 
L 254.865682 292.633043 
L 255.499773 292.633043 
L 256.133864 293.384348 
L 256.450909 293.384348 
L 256.767955 293.234087 
L 257.085 293.234087 
L 257.719091 293.985391 
L 258.036136 293.985391 
L 258.353182 294.436174 
L 258.670227 294.436174 
L 258.987273 294.586435 
L 259.304318 294.285913 
L 259.621364 294.586435 
L 259.938409 294.285913 
L 260.889545 295.187478 
L 261.523636 295.187478 
L 261.840682 294.886957 
L 263.742955 294.886957 
L 264.06 293.234087 
L 264.377045 293.083826 
L 264.694091 293.083826 
L 265.011136 293.68487 
L 265.645227 294.135652 
L 265.962273 293.985391 
L 266.279318 291.881739 
L 266.596364 291.430957 
L 266.913409 291.280696 
L 267.230455 291.280696 
L 267.5475 293.83513 
L 267.864545 293.985391 
L 268.181591 293.985391 
L 268.498636 293.68487 
L 268.815682 293.68487 
L 269.132727 293.985391 
L 269.449773 293.985391 
L 270.083864 294.586435 
L 270.400909 294.586435 
L 270.717955 294.886957 
L 271.352045 294.886957 
L 271.669091 295.187478 
L 272.303182 295.187478 
L 272.620227 294.886957 
L 273.254318 294.886957 
L 273.571364 295.187478 
L 273.888409 295.187478 
L 274.205455 293.985391 
L 274.5225 293.83513 
L 274.839545 291.130435 
L 275.156591 291.130435 
L 275.473636 290.980174 
L 275.790682 291.130435 
L 276.107727 294.886957 
L 277.692955 294.886957 
L 278.01 294.736696 
L 278.327045 294.436174 
L 279.595227 294.436174 
L 279.912273 294.586435 
L 280.546364 294.586435 
L 280.863409 294.285913 
L 281.180455 292.633043 
L 281.4975 292.332522 
L 281.814545 292.332522 
L 282.131591 293.83513 
L 282.448636 293.985391 
L 282.765682 293.985391 
L 283.082727 294.135652 
L 283.399773 295.037217 
L 283.716818 295.187478 
L 284.350909 295.187478 
L 284.667955 294.886957 
L 285.302045 294.886957 
L 285.936136 295.337739 
L 286.253182 295.337739 
L 286.570227 294.586435 
L 286.887273 294.586435 
L 287.204318 294.436174 
L 287.521364 292.633043 
L 287.838409 292.482783 
L 288.155455 292.482783 
L 288.4725 288.425739 
L 289.106591 288.425739 
L 289.423636 292.332522 
L 289.740682 292.482783 
L 290.374773 292.482783 
L 290.691818 293.985391 
L 291.325909 293.985391 
L 291.642955 294.886957 
L 293.545227 294.886957 
L 293.862273 293.985391 
L 294.179318 293.985391 
L 294.496364 292.633043 
L 295.130455 292.633043 
L 295.4475 294.586435 
L 296.398636 294.586435 
L 297.349773 295.488 
L 297.666818 295.488 
L 297.983864 293.534609 
L 298.617955 293.234087 
L 298.935 292.633043 
L 299.252045 292.482783 
L 300.837273 292.482783 
L 301.154318 293.83513 
L 301.471364 293.83513 
L 301.788409 293.985391 
L 302.105455 293.985391 
L 303.056591 294.436174 
L 303.690682 294.436174 
L 304.007727 294.285913 
L 304.324773 294.285913 
L 304.958864 294.886957 
L 305.592955 294.886957 
L 305.91 295.187478 
L 306.227045 294.886957 
L 306.544091 295.337739 
L 307.178182 295.337739 
L 307.495227 295.187478 
L 307.812273 295.187478 
L 308.129318 294.285913 
L 308.446364 289.778087 
L 309.080455 289.327304 
L 309.3975 285.420522 
L 309.714545 285.420522 
L 310.031591 287.223652 
L 310.665682 287.223652 
L 310.982727 287.524174 
L 311.299773 287.524174 
L 311.616818 289.928348 
L 311.933864 287.824696 
L 312.885 287.824696 
L 313.202045 288.425739 
L 313.519091 287.974957 
L 314.153182 288.726261 
L 315.104318 288.726261 
L 315.421364 289.327304 
L 316.055455 289.327304 
L 316.3725 292.482783 
L 316.689545 292.482783 
L 317.006591 293.083826 
L 317.323636 293.234087 
L 317.640682 293.083826 
L 317.957727 293.234087 
L 318.274773 294.586435 
L 318.908864 294.586435 
L 319.225909 293.534609 
L 319.542955 293.384348 
L 319.86 293.384348 
L 320.177045 293.234087 
L 320.494091 293.234087 
L 320.811136 293.083826 
L 321.445227 293.083826 
L 321.762273 292.933565 
L 322.396364 292.933565 
L 322.713409 294.886957 
L 323.030455 295.187478 
L 323.981591 295.187478 
L 324.298636 294.586435 
L 325.249773 294.586435 
L 325.566818 294.135652 
L 325.883864 293.985391 
L 326.200909 293.985391 
L 326.517955 294.285913 
L 327.152045 294.285913 
L 327.469091 293.985391 
L 328.103182 293.985391 
L 328.420227 294.886957 
L 329.054318 294.886957 
L 329.371364 295.187478 
L 330.005455 295.187478 
L 330.639545 294.586435 
L 331.273636 294.586435 
L 331.590682 294.285913 
L 331.907727 293.384348 
L 332.224773 293.083826 
L 332.541818 293.384348 
L 332.858864 293.083826 
L 333.175909 293.234087 
L 334.444091 293.234087 
L 334.761136 294.285913 
L 335.078182 294.285913 
L 335.395227 294.586435 
L 337.931591 294.586435 
L 338.248636 294.886957 
L 338.565682 294.886957 
L 339.199773 295.187478 
L 339.516818 295.187478 
L 339.833864 293.534609 
L 340.467955 293.534609 
L 340.785 293.985391 
L 341.102045 295.037217 
L 341.419091 293.985391 
L 342.053182 293.234087 
L 342.370227 292.933565 
L 342.687273 292.933565 
L 343.004318 293.234087 
L 343.321364 293.985391 
L 343.638409 294.436174 
L 344.2725 293.68487 
L 344.589545 293.534609 
L 344.906591 291.581217 
L 345.223636 291.581217 
L 345.540682 292.032 
L 345.857727 293.985391 
L 346.174773 294.285913 
L 346.491818 293.985391 
L 347.76 295.187478 
L 348.077045 295.187478 
L 348.394091 294.436174 
L 348.711136 294.285913 
L 349.028182 293.534609 
L 349.345227 293.384348 
L 349.979318 293.68487 
L 350.613409 293.68487 
L 350.930455 294.886957 
L 351.2475 294.886957 
L 351.564545 295.187478 
L 352.198636 295.187478 
L 352.515682 294.886957 
L 353.149773 294.886957 
L 353.466818 294.586435 
L 354.417955 294.586435 
L 354.735 293.384348 
L 355.369091 293.384348 
L 356.003182 292.482783 
L 356.320227 292.933565 
L 356.637273 292.482783 
L 356.954318 293.234087 
L 357.271364 293.234087 
L 357.588409 295.187478 
L 357.905455 295.187478 
L 358.2225 294.886957 
L 358.539545 294.886957 
L 358.856591 295.187478 
L 359.173636 295.187478 
L 359.490682 293.83513 
L 359.807727 293.534609 
L 361.075909 294.586435 
L 361.71 294.586435 
L 362.344091 294.886957 
L 362.661136 295.187478 
L 364.880455 295.187478 
L 365.1975 293.534609 
L 365.514545 293.384348 
L 366.148636 293.384348 
L 366.465682 293.234087 
L 367.099773 293.234087 
L 367.416818 293.384348 
L 367.733864 293.384348 
L 368.050909 294.135652 
L 368.367955 294.135652 
L 368.685 293.985391 
L 369.002045 293.534609 
L 369.319091 292.482783 
L 369.953182 292.482783 
L 370.270227 292.633043 
L 370.587273 292.482783 
L 370.904318 292.633043 
L 371.221364 294.285913 
L 372.806591 294.285913 
L 373.440682 294.586435 
L 373.757727 294.586435 
L 374.391818 294.886957 
L 374.708864 294.736696 
L 375.025909 292.633043 
L 375.342955 292.633043 
L 375.66 294.886957 
L 375.977045 295.187478 
L 377.562273 295.187478 
L 377.879318 294.886957 
L 378.196364 293.985391 
L 379.1475 293.985391 
L 379.464545 292.633043 
L 379.781591 292.482783 
L 380.415682 292.482783 
L 380.732727 293.083826 
L 381.366818 293.083826 
L 381.683864 293.384348 
L 382.000909 294.586435 
L 382.317955 294.736696 
L 382.952045 294.736696 
L 383.586136 294.285913 
L 384.220227 294.285913 
L 384.537273 294.436174 
L 384.854318 294.436174 
L 385.171364 294.886957 
L 386.1225 294.886957 
L 386.439545 295.187478 
L 386.756591 294.886957 
L 387.390682 294.886957 
L 387.707727 295.187478 
L 388.658864 295.187478 
L 388.975909 293.384348 
L 389.61 293.384348 
L 389.927045 293.083826 
L 390.244091 293.384348 
L 390.561136 293.083826 
L 390.878182 293.083826 
L 391.195227 291.731478 
L 391.512273 291.430957 
L 391.829318 291.731478 
L 392.146364 291.430957 
L 392.463409 291.881739 
L 392.780455 294.285913 
L 393.414545 294.285913 
L 393.731591 294.436174 
L 394.048636 294.436174 
L 394.365682 294.586435 
L 394.682727 294.886957 
L 395.316818 294.886957 
L 395.633864 295.187478 
L 395.950909 295.187478 
L 396.267955 294.886957 
L 396.585 294.886957 
L 396.902045 294.586435 
L 397.219091 293.83513 
L 397.536136 293.83513 
L 397.853182 294.135652 
L 398.170227 294.886957 
L 398.487273 295.187478 
L 398.487273 295.187478 
" clip-path="url(#p40edfbf9e5)" style="fill: none; stroke: #1f77b4; stroke-width: 1.5; stroke-linecap: square"/>
   </g>
   <g id="patch_3">
    <path d="M 57.6 307.584 
L 57.6 41.472 
" style="fill: none; stroke: #000000; stroke-width: 0.8; stroke-linejoin: miter; stroke-linecap: square"/>
   </g>
   <g id="patch_4">
    <path d="M 414.72 307.584 
L 414.72 41.472 
" style="fill: none; stroke: #000000; stroke-width: 0.8; stroke-linejoin: miter; stroke-linecap: square"/>
   </g>
   <g id="patch_5">
    <path d="M 57.6 307.584 
L 414.72 307.584 
" style="fill: none; stroke: #000000; stroke-width: 0.8; stroke-linejoin: miter; stroke-linecap: square"/>
   </g>
   <g id="patch_6">
    <path d="M 57.6 41.472 
L 414.72 41.472 
" style="fill: none; stroke: #000000; stroke-width: 0.8; stroke-linejoin: miter; stroke-linecap: square"/>
   </g>
   <g id="text_18">
    <!-- LEA Encryption -->
    <g transform="translate(190.801875 35.472) scale(0.12 -0.12)">
     <defs>
      <path id="DejaVuSans-4c" d="M 628 4666 
L 1259 4666 
L 1259 531 
L 3531 531 
L 3531 0 
L 628 0 
L 628 4666 
z
" transform="scale(0.015625)"/>
      <path id="DejaVuSans-45" d="M 628 4666 
L 3578 4666 
L 3578 4134 
L 1259 4134 
L 1259 2753 
L 3481 2753 
L 3481 2222 
L 1259 2222 
L 1259 531 
L 3634 531 
L 3634 0 
L 628 0 
L 628 4666 
z
" transform="scale(0.015625)"/>
      <path id="DejaVuSans-41" d="M 2188 4044 
L 1331 1722 
L 3047 1722 
L 2188 4044 
z
M 1831 4666 
L 2547 4666 
L 4325 0 
L 3669 0 
L 3244 1197 
L 1141 1197 
L 716 0 
L 50 0 
L 1831 4666 
z
" transform="scale(0.015625)"/>
      <path id="DejaVuSans-20" transform="scale(0.015625)"/>
      <path id="DejaVuSans-72" d="M 2631 2963 
Q 2534 3019 2420 3045 
Q 2306 3072 2169 3072 
Q 1681 3072 1420 2755 
Q 1159 2438 1159 1844 
L 1159 0 
L 581 0 
L 581 3500 
L 1159 3500 
L 1159 2956 
Q 1341 3275 1631 3429 
Q 1922 3584 2338 3584 
Q 2397 3584 2469 3576 
Q 2541 3569 2628 3553 
L 2631 2963 
z
" transform="scale(0.015625)"/>
      <path id="DejaVuSans-70" d="M 1159 525 
L 1159 -1331 
L 581 -1331 
L 581 3500 
L 1159 3500 
L 1159 2969 
Q 1341 3281 1617 3432 
Q 1894 3584 2278 3584 
Q 2916 3584 3314 3078 
Q 3713 2572 3713 1747 
Q 3713 922 3314 415 
Q 2916 -91 2278 -91 
Q 1894 -91 1617 61 
Q 1341 213 1159 525 
z
M 3116 1747 
Q 3116 2381 2855 2742 
Q 2594 3103 2138 3103 
Q 1681 3103 1420 2742 
Q 1159 2381 1159 1747 
Q 1159 1113 1420 752 
Q 1681 391 2138 391 
Q 2594 391 2855 752 
Q 3116 1113 3116 1747 
z
" transform="scale(0.015625)"/>
      <path id="DejaVuSans-74" d="M 1172 4494 
L 1172 3500 
L 2356 3500 
L 2356 3053 
L 1172 3053 
L 1172 1153 
Q 1172 725 1289 603 
Q 1406 481 1766 481 
L 2356 481 
L 2356 0 
L 1766 0 
Q 1100 0 847 248 
Q 594 497 594 1153 
L 594 3053 
L 172 3053 
L 172 3500 
L 594 3500 
L 594 4494 
L 1172 4494 
z
" transform="scale(0.015625)"/>
      <path id="DejaVuSans-69" d="M 603 3500 
L 1178 3500 
L 1178 0 
L 603 0 
L 603 3500 
z
M 603 4863 
L 1178 4863 
L 1178 4134 
L 603 4134 
L 603 4863 
z
" transform="scale(0.015625)"/>
      <path id="DejaVuSans-6f" d="M 1959 3097 
Q 1497 3097 1228 2736 
Q 959 2375 959 1747 
Q 959 1119 1226 758 
Q 1494 397 1959 397 
Q 2419 397 2687 759 
Q 2956 1122 2956 1747 
Q 2956 2369 2687 2733 
Q 2419 3097 1959 3097 
z
M 1959 3584 
Q 2709 3584 3137 3096 
Q 3566 2609 3566 1747 
Q 3566 888 3137 398 
Q 2709 -91 1959 -91 
Q 1206 -91 779 398 
Q 353 888 353 1747 
Q 353 2609 779 3096 
Q 1206 3584 1959 3584 
z
" transform="scale(0.015625)"/>
     </defs>
     <use xlink:href="#DejaVuSans-4c"/>
     <use xlink:href="#DejaVuSans-45" x="55.712891"/>
     <use xlink:href="#DejaVuSans-41" x="118.896484"/>
     <use xlink:href="#DejaVuSans-20" x="187.304688"/>
     <use xlink:href="#DejaVuSans-45" x="219.091797"/>
     <use xlink:href="#DejaVuSans-6e" x="282.275391"/>
     <use xlink:href="#DejaVuSans-63" x="345.654297"/>
     <use xlink:href="#DejaVuSans-72" x="400.634766"/>
     <use xlink:href="#DejaVuSans-79" x="441.748047"/>
     <use xlink:href="#DejaVuSans-70" x="500.927734"/>
     <use xlink:href="#DejaVuSans-74" x="564.404297"/>
     <use xlink:href="#DejaVuSans-69" x="603.613281"/>
     <use xlink:href="#DejaVuSans-6f" x="631.396484"/>
     <use xlink:href="#DejaVuSans-6e" x="692.578125"/>
    </g>
   </g>
   <g id="legend_1">
    <g id="patch_7">
     <path d="M 118.502812 183.367062 
L 407.72 183.367062 
Q 409.72 183.367062 409.72 181.367062 
L 409.72 167.688937 
Q 409.72 165.688937 407.72 165.688937 
L 118.502812 165.688937 
Q 116.502812 165.688937 116.502812 167.688937 
L 116.502812 181.367062 
Q 116.502812 183.367062 118.502812 183.367062 
z
" style="fill: #ffffff; opacity: 0.8; stroke: #cccccc; stroke-linejoin: miter"/>
    </g>
    <g id="line2d_17">
     <path d="M 120.502812 173.787375 
L 130.502812 173.787375 
L 140.502812 173.787375 
" style="fill: none; stroke: #1f77b4; stroke-width: 1.5; stroke-linecap: square"/>
    </g>
    <g id="text_19">
     <!-- Median filtered encryption algorithm cycles per run -->
     <g transform="translate(148.502812 177.287375) scale(0.1 -0.1)">
      <defs>
       <path id="DejaVuSans-4d" d="M 628 4666 
L 1569 4666 
L 2759 1491 
L 3956 4666 
L 4897 4666 
L 4897 0 
L 4281 0 
L 4281 4097 
L 3078 897 
L 2444 897 
L 1241 4097 
L 1241 0 
L 628 0 
L 628 4666 
z
" transform="scale(0.015625)"/>
       <path id="DejaVuSans-64" d="M 2906 2969 
L 2906 4863 
L 3481 4863 
L 3481 0 
L 2906 0 
L 2906 525 
Q 2725 213 2448 61 
Q 2172 -91 1784 -91 
Q 1150 -91 751 415 
Q 353 922 353 1747 
Q 353 2572 751 3078 
Q 1150 3584 1784 3584 
Q 2172 3584 2448 3432 
Q 2725 3281 2906 2969 
z
M 947 1747 
Q 947 1113 1208 752 
Q 1469 391 1925 391 
Q 2381 391 2643 752 
Q 2906 1113 2906 1747 
Q 2906 2381 2643 2742 
Q 2381 3103 1925 3103 
Q 1469 3103 1208 2742 
Q 947 2381 947 1747 
z
" transform="scale(0.015625)"/>
       <path id="DejaVuSans-61" d="M 2194 1759 
Q 1497 1759 1228 1600 
Q 959 1441 959 1056 
Q 959 750 1161 570 
Q 1363 391 1709 391 
Q 2188 391 2477 730 
Q 2766 1069 2766 1631 
L 2766 1759 
L 2194 1759 
z
M 3341 1997 
L 3341 0 
L 2766 0 
L 2766 531 
Q 2569 213 2275 61 
Q 1981 -91 1556 -91 
Q 1019 -91 701 211 
Q 384 513 384 1019 
Q 384 1609 779 1909 
Q 1175 2209 1959 2209 
L 2766 2209 
L 2766 2266 
Q 2766 2663 2505 2880 
Q 2244 3097 1772 3097 
Q 1472 3097 1187 3025 
Q 903 2953 641 2809 
L 641 3341 
Q 956 3463 1253 3523 
Q 1550 3584 1831 3584 
Q 2591 3584 2966 3190 
Q 3341 2797 3341 1997 
z
" transform="scale(0.015625)"/>
       <path id="DejaVuSans-66" d="M 2375 4863 
L 2375 4384 
L 1825 4384 
Q 1516 4384 1395 4259 
Q 1275 4134 1275 3809 
L 1275 3500 
L 2222 3500 
L 2222 3053 
L 1275 3053 
L 1275 0 
L 697 0 
L 697 3053 
L 147 3053 
L 147 3500 
L 697 3500 
L 697 3744 
Q 697 4328 969 4595 
Q 1241 4863 1831 4863 
L 2375 4863 
z
" transform="scale(0.015625)"/>
       <path id="DejaVuSans-67" d="M 2906 1791 
Q 2906 2416 2648 2759 
Q 2391 3103 1925 3103 
Q 1463 3103 1205 2759 
Q 947 2416 947 1791 
Q 947 1169 1205 825 
Q 1463 481 1925 481 
Q 2391 481 2648 825 
Q 2906 1169 2906 1791 
z
M 3481 434 
Q 3481 -459 3084 -895 
Q 2688 -1331 1869 -1331 
Q 1566 -1331 1297 -1286 
Q 1028 -1241 775 -1147 
L 775 -588 
Q 1028 -725 1275 -790 
Q 1522 -856 1778 -856 
Q 2344 -856 2625 -561 
Q 2906 -266 2906 331 
L 2906 616 
Q 2728 306 2450 153 
Q 2172 0 1784 0 
Q 1141 0 747 490 
Q 353 981 353 1791 
Q 353 2603 747 3093 
Q 1141 3584 1784 3584 
Q 2172 3584 2450 3431 
Q 2728 3278 2906 2969 
L 2906 3500 
L 3481 3500 
L 3481 434 
z
" transform="scale(0.015625)"/>
       <path id="DejaVuSans-68" d="M 3513 2113 
L 3513 0 
L 2938 0 
L 2938 2094 
Q 2938 2591 2744 2837 
Q 2550 3084 2163 3084 
Q 1697 3084 1428 2787 
Q 1159 2491 1159 1978 
L 1159 0 
L 581 0 
L 581 4863 
L 1159 4863 
L 1159 2956 
Q 1366 3272 1645 3428 
Q 1925 3584 2291 3584 
Q 2894 3584 3203 3211 
Q 3513 2838 3513 2113 
z
" transform="scale(0.015625)"/>
       <path id="DejaVuSans-6d" d="M 3328 2828 
Q 3544 3216 3844 3400 
Q 4144 3584 4550 3584 
Q 5097 3584 5394 3201 
Q 5691 2819 5691 2113 
L 5691 0 
L 5113 0 
L 5113 2094 
Q 5113 2597 4934 2840 
Q 4756 3084 4391 3084 
Q 3944 3084 3684 2787 
Q 3425 2491 3425 1978 
L 3425 0 
L 2847 0 
L 2847 2094 
Q 2847 2600 2669 2842 
Q 2491 3084 2119 3084 
Q 1678 3084 1418 2786 
Q 1159 2488 1159 1978 
L 1159 0 
L 581 0 
L 581 3500 
L 1159 3500 
L 1159 2956 
Q 1356 3278 1631 3431 
Q 1906 3584 2284 3584 
Q 2666 3584 2933 3390 
Q 3200 3197 3328 2828 
z
" transform="scale(0.015625)"/>
       <path id="DejaVuSans-75" d="M 544 1381 
L 544 3500 
L 1119 3500 
L 1119 1403 
Q 1119 906 1312 657 
Q 1506 409 1894 409 
Q 2359 409 2629 706 
Q 2900 1003 2900 1516 
L 2900 3500 
L 3475 3500 
L 3475 0 
L 2900 0 
L 2900 538 
Q 2691 219 2414 64 
Q 2138 -91 1772 -91 
Q 1169 -91 856 284 
Q 544 659 544 1381 
z
M 1991 3584 
L 1991 3584 
z
" transform="scale(0.015625)"/>
      </defs>
      <use xlink:href="#DejaVuSans-4d"/>
      <use xlink:href="#DejaVuSans-65" x="86.279297"/>
      <use xlink:href="#DejaVuSans-64" x="147.802734"/>
      <use xlink:href="#DejaVuSans-69" x="211.279297"/>
      <use xlink:href="#DejaVuSans-61" x="239.0625"/>
      <use xlink:href="#DejaVuSans-6e" x="300.341797"/>
      <use xlink:href="#DejaVuSans-20" x="363.720703"/>
      <use xlink:href="#DejaVuSans-66" x="395.507812"/>
      <use xlink:href="#DejaVuSans-69" x="430.712891"/>
      <use xlink:href="#DejaVuSans-6c" x="458.496094"/>
      <use xlink:href="#DejaVuSans-74" x="486.279297"/>
      <use xlink:href="#DejaVuSans-65" x="525.488281"/>
      <use xlink:href="#DejaVuSans-72" x="587.011719"/>
      <use xlink:href="#DejaVuSans-65" x="625.875"/>
      <use xlink:href="#DejaVuSans-64" x="687.398438"/>
      <use xlink:href="#DejaVuSans-20" x="750.875"/>
      <use xlink:href="#DejaVuSans-65" x="782.662109"/>
      <use xlink:href="#DejaVuSans-6e" x="844.185547"/>
      <use xlink:href="#DejaVuSans-63" x="907.564453"/>
      <use xlink:href="#DejaVuSans-72" x="962.544922"/>
      <use xlink:href="#DejaVuSans-79" x="1003.658203"/>
      <use xlink:href="#DejaVuSans-70" x="1062.837891"/>
      <use xlink:href="#DejaVuSans-74" x="1126.314453"/>
      <use xlink:href="#DejaVuSans-69" x="1165.523438"/>
      <use xlink:href="#DejaVuSans-6f" x="1193.306641"/>
      <use xlink:href="#DejaVuSans-6e" x="1254.488281"/>
      <use xlink:href="#DejaVuSans-20" x="1317.867188"/>
      <use xlink:href="#DejaVuSans-61" x="1349.654297"/>
      <use xlink:href="#DejaVuSans-6c" x="1410.933594"/>
      <use xlink:href="#DejaVuSans-67" x="1438.716797"/>
      <use xlink:href="#DejaVuSans-6f" x="1502.193359"/>
      <use xlink:href="#DejaVuSans-72" x="1563.375"/>
      <use xlink:href="#DejaVuSans-69" x="1604.488281"/>
      <use xlink:href="#DejaVuSans-74" x="1632.271484"/>
      <use xlink:href="#DejaVuSans-68" x="1671.480469"/>
      <use xlink:href="#DejaVuSans-6d" x="1734.859375"/>
      <use xlink:href="#DejaVuSans-20" x="1832.271484"/>
      <use xlink:href="#DejaVuSans-63" x="1864.058594"/>
      <use xlink:href="#DejaVuSans-79" x="1919.039062"/>
      <use xlink:href="#DejaVuSans-63" x="1978.21875"/>
      <use xlink:href="#DejaVuSans-6c" x="2033.199219"/>
      <use xlink:href="#DejaVuSans-65" x="2060.982422"/>
      <use xlink:href="#DejaVuSans-73" x="2122.505859"/>
      <use xlink:href="#DejaVuSans-20" x="2174.605469"/>
      <use xlink:href="#DejaVuSans-70" x="2206.392578"/>
      <use xlink:href="#DejaVuSans-65" x="2269.869141"/>
      <use xlink:href="#DejaVuSans-72" x="2331.392578"/>
      <use xlink:href="#DejaVuSans-20" x="2372.505859"/>
      <use xlink:href="#DejaVuSans-72" x="2404.292969"/>
      <use xlink:href="#DejaVuSans-75" x="2445.40625"/>
      <use xlink:href="#DejaVuSans-6e" x="2508.785156"/>
     </g>
    </g>
   </g>
  </g>
 </g>
 <defs>
  <clipPath id="p40edfbf9e5">
   <rect x="57.6" y="41.472" width="357.12" height="266.112"/>
  </clipPath>
 </defs>
</svg>
