<?xml version="1.0" encoding="utf-8" standalone="no"?>
<!DOCTYPE svg PUBLIC "-//W3C//DTD SVG 1.1//EN"
  "http://www.w3.org/Graphics/SVG/1.1/DTD/svg11.dtd">
<svg xmlns:xlink="http://www.w3.org/1999/xlink" width="460.8pt" height="345.6pt" viewBox="0 0 460.8 345.6" xmlns="http://www.w3.org/2000/svg" version="1.1">
 <metadata>
  <rdf:RDF xmlns:dc="http://purl.org/dc/elements/1.1/" xmlns:cc="http://creativecommons.org/ns#" xmlns:rdf="http://www.w3.org/1999/02/22-rdf-syntax-ns#">
   <cc:Work>
    <dc:type rdf:resource="http://purl.org/dc/dcmitype/StillImage"/>
    <dc:date>2023-11-07T12:51:45.167289</dc:date>
    <dc:format>image/svg+xml</dc:format>
    <dc:creator>
     <cc:Agent>
      <dc:title>Matplotlib v3.7.3, https://matplotlib.org/</dc:title>
     </cc:Agent>
    </dc:creator>
   </cc:Work>
  </rdf:RDF>
 </metadata>
 <defs>
  <style type="text/css">*{stroke-linejoin: round; stroke-linecap: butt}</style>
 </defs>
 <g id="figure_1">
  <g id="patch_1">
   <path d="M 0 345.6 
L 460.8 345.6 
L 460.8 0 
L 0 0 
z
" style="fill: #ffffff"/>
  </g>
  <g id="axes_1">
   <g id="patch_2">
    <path d="M 57.6 307.584 
L 414.72 307.584 
L 414.72 41.472 
L 57.6 41.472 
z
" style="fill: #ffffff"/>
   </g>
   <g id="matplotlib.axis_1">
    <g id="xtick_1">
     <g id="line2d_1">
      <defs>
       <path id="mdaa0743b0d" d="M 0 0 
L 0 3.5 
" style="stroke: #000000; stroke-width: 0.8"/>
      </defs>
      <g>
       <use xlink:href="#mdaa0743b0d" x="73.832727" y="307.584" style="stroke: #000000; stroke-width: 0.8"/>
      </g>
     </g>
     <g id="text_1">
      <!-- 0 -->
      <g transform="translate(70.651477 322.182437) scale(0.1 -0.1)">
       <defs>
        <path id="DejaVuSans-30" d="M 2034 4250 
Q 1547 4250 1301 3770 
Q 1056 3291 1056 2328 
Q 1056 1369 1301 889 
Q 1547 409 2034 409 
Q 2525 409 2770 889 
Q 3016 1369 3016 2328 
Q 3016 3291 2770 3770 
Q 2525 4250 2034 4250 
z
M 2034 4750 
Q 2819 4750 3233 4129 
Q 3647 3509 3647 2328 
Q 3647 1150 3233 529 
Q 2819 -91 2034 -91 
Q 1250 -91 836 529 
Q 422 1150 422 2328 
Q 422 3509 836 4129 
Q 1250 4750 2034 4750 
z
" transform="scale(0.015625)"/>
       </defs>
       <use xlink:href="#DejaVuSans-30"/>
      </g>
     </g>
    </g>
    <g id="xtick_2">
     <g id="line2d_2">
      <g>
       <use xlink:href="#mdaa0743b0d" x="137.241818" y="307.584" style="stroke: #000000; stroke-width: 0.8"/>
      </g>
     </g>
     <g id="text_2">
      <!-- 200 -->
      <g transform="translate(127.698068 322.182437) scale(0.1 -0.1)">
       <defs>
        <path id="DejaVuSans-32" d="M 1228 531 
L 3431 531 
L 3431 0 
L 469 0 
L 469 531 
Q 828 903 1448 1529 
Q 2069 2156 2228 2338 
Q 2531 2678 2651 2914 
Q 2772 3150 2772 3378 
Q 2772 3750 2511 3984 
Q 2250 4219 1831 4219 
Q 1534 4219 1204 4116 
Q 875 4013 500 3803 
L 500 4441 
Q 881 4594 1212 4672 
Q 1544 4750 1819 4750 
Q 2544 4750 2975 4387 
Q 3406 4025 3406 3419 
Q 3406 3131 3298 2873 
Q 3191 2616 2906 2266 
Q 2828 2175 2409 1742 
Q 1991 1309 1228 531 
z
" transform="scale(0.015625)"/>
       </defs>
       <use xlink:href="#DejaVuSans-32"/>
       <use xlink:href="#DejaVuSans-30" x="63.623047"/>
       <use xlink:href="#DejaVuSans-30" x="127.246094"/>
      </g>
     </g>
    </g>
    <g id="xtick_3">
     <g id="line2d_3">
      <g>
       <use xlink:href="#mdaa0743b0d" x="200.650909" y="307.584" style="stroke: #000000; stroke-width: 0.8"/>
      </g>
     </g>
     <g id="text_3">
      <!-- 400 -->
      <g transform="translate(191.107159 322.182437) scale(0.1 -0.1)">
       <defs>
        <path id="DejaVuSans-34" d="M 2419 4116 
L 825 1625 
L 2419 1625 
L 2419 4116 
z
M 2253 4666 
L 3047 4666 
L 3047 1625 
L 3713 1625 
L 3713 1100 
L 3047 1100 
L 3047 0 
L 2419 0 
L 2419 1100 
L 313 1100 
L 313 1709 
L 2253 4666 
z
" transform="scale(0.015625)"/>
       </defs>
       <use xlink:href="#DejaVuSans-34"/>
       <use xlink:href="#DejaVuSans-30" x="63.623047"/>
       <use xlink:href="#DejaVuSans-30" x="127.246094"/>
      </g>
     </g>
    </g>
    <g id="xtick_4">
     <g id="line2d_4">
      <g>
       <use xlink:href="#mdaa0743b0d" x="264.06" y="307.584" style="stroke: #000000; stroke-width: 0.8"/>
      </g>
     </g>
     <g id="text_4">
      <!-- 600 -->
      <g transform="translate(254.51625 322.182437) scale(0.1 -0.1)">
       <defs>
        <path id="DejaVuSans-36" d="M 2113 2584 
Q 1688 2584 1439 2293 
Q 1191 2003 1191 1497 
Q 1191 994 1439 701 
Q 1688 409 2113 409 
Q 2538 409 2786 701 
Q 3034 994 3034 1497 
Q 3034 2003 2786 2293 
Q 2538 2584 2113 2584 
z
M 3366 4563 
L 3366 3988 
Q 3128 4100 2886 4159 
Q 2644 4219 2406 4219 
Q 1781 4219 1451 3797 
Q 1122 3375 1075 2522 
Q 1259 2794 1537 2939 
Q 1816 3084 2150 3084 
Q 2853 3084 3261 2657 
Q 3669 2231 3669 1497 
Q 3669 778 3244 343 
Q 2819 -91 2113 -91 
Q 1303 -91 875 529 
Q 447 1150 447 2328 
Q 447 3434 972 4092 
Q 1497 4750 2381 4750 
Q 2619 4750 2861 4703 
Q 3103 4656 3366 4563 
z
" transform="scale(0.015625)"/>
       </defs>
       <use xlink:href="#DejaVuSans-36"/>
       <use xlink:href="#DejaVuSans-30" x="63.623047"/>
       <use xlink:href="#DejaVuSans-30" x="127.246094"/>
      </g>
     </g>
    </g>
    <g id="xtick_5">
     <g id="line2d_5">
      <g>
       <use xlink:href="#mdaa0743b0d" x="327.469091" y="307.584" style="stroke: #000000; stroke-width: 0.8"/>
      </g>
     </g>
     <g id="text_5">
      <!-- 800 -->
      <g transform="translate(317.925341 322.182437) scale(0.1 -0.1)">
       <defs>
        <path id="DejaVuSans-38" d="M 2034 2216 
Q 1584 2216 1326 1975 
Q 1069 1734 1069 1313 
Q 1069 891 1326 650 
Q 1584 409 2034 409 
Q 2484 409 2743 651 
Q 3003 894 3003 1313 
Q 3003 1734 2745 1975 
Q 2488 2216 2034 2216 
z
M 1403 2484 
Q 997 2584 770 2862 
Q 544 3141 544 3541 
Q 544 4100 942 4425 
Q 1341 4750 2034 4750 
Q 2731 4750 3128 4425 
Q 3525 4100 3525 3541 
Q 3525 3141 3298 2862 
Q 3072 2584 2669 2484 
Q 3125 2378 3379 2068 
Q 3634 1759 3634 1313 
Q 3634 634 3220 271 
Q 2806 -91 2034 -91 
Q 1263 -91 848 271 
Q 434 634 434 1313 
Q 434 1759 690 2068 
Q 947 2378 1403 2484 
z
M 1172 3481 
Q 1172 3119 1398 2916 
Q 1625 2713 2034 2713 
Q 2441 2713 2670 2916 
Q 2900 3119 2900 3481 
Q 2900 3844 2670 4047 
Q 2441 4250 2034 4250 
Q 1625 4250 1398 4047 
Q 1172 3844 1172 3481 
z
" transform="scale(0.015625)"/>
       </defs>
       <use xlink:href="#DejaVuSans-38"/>
       <use xlink:href="#DejaVuSans-30" x="63.623047"/>
       <use xlink:href="#DejaVuSans-30" x="127.246094"/>
      </g>
     </g>
    </g>
    <g id="xtick_6">
     <g id="line2d_6">
      <g>
       <use xlink:href="#mdaa0743b0d" x="390.878182" y="307.584" style="stroke: #000000; stroke-width: 0.8"/>
      </g>
     </g>
     <g id="text_6">
      <!-- 1000 -->
      <g transform="translate(378.153182 322.182437) scale(0.1 -0.1)">
       <defs>
        <path id="DejaVuSans-31" d="M 794 531 
L 1825 531 
L 1825 4091 
L 703 3866 
L 703 4441 
L 1819 4666 
L 2450 4666 
L 2450 531 
L 3481 531 
L 3481 0 
L 794 0 
L 794 531 
z
" transform="scale(0.015625)"/>
       </defs>
       <use xlink:href="#DejaVuSans-31"/>
       <use xlink:href="#DejaVuSans-30" x="63.623047"/>
       <use xlink:href="#DejaVuSans-30" x="127.246094"/>
       <use xlink:href="#DejaVuSans-30" x="190.869141"/>
      </g>
     </g>
    </g>
    <g id="text_7">
     <!-- n -->
     <g transform="translate(232.99125 335.860562) scale(0.1 -0.1)">
      <defs>
       <path id="DejaVuSans-6e" d="M 3513 2113 
L 3513 0 
L 2938 0 
L 2938 2094 
Q 2938 2591 2744 2837 
Q 2550 3084 2163 3084 
Q 1697 3084 1428 2787 
Q 1159 2491 1159 1978 
L 1159 0 
L 581 0 
L 581 3500 
L 1159 3500 
L 1159 2956 
Q 1366 3272 1645 3428 
Q 1925 3584 2291 3584 
Q 2894 3584 3203 3211 
Q 3513 2838 3513 2113 
z
" transform="scale(0.015625)"/>
      </defs>
      <use xlink:href="#DejaVuSans-6e"/>
     </g>
    </g>
   </g>
   <g id="matplotlib.axis_2">
    <g id="ytick_1">
     <g id="line2d_7">
      <defs>
       <path id="m89bbe70468" d="M 0 0 
L -3.5 0 
" style="stroke: #000000; stroke-width: 0.8"/>
      </defs>
      <g>
       <use xlink:href="#m89bbe70468" x="57.6" y="277.568" style="stroke: #000000; stroke-width: 0.8"/>
      </g>
     </g>
     <g id="text_8">
      <!-- 140 -->
      <g transform="translate(31.5125 281.367219) scale(0.1 -0.1)">
       <use xlink:href="#DejaVuSans-31"/>
       <use xlink:href="#DejaVuSans-34" x="63.623047"/>
       <use xlink:href="#DejaVuSans-30" x="127.246094"/>
      </g>
     </g>
    </g>
    <g id="ytick_2">
     <g id="line2d_8">
      <g>
       <use xlink:href="#m89bbe70468" x="57.6" y="232.768" style="stroke: #000000; stroke-width: 0.8"/>
      </g>
     </g>
     <g id="text_9">
      <!-- 150 -->
      <g transform="translate(31.5125 236.567219) scale(0.1 -0.1)">
       <defs>
        <path id="DejaVuSans-35" d="M 691 4666 
L 3169 4666 
L 3169 4134 
L 1269 4134 
L 1269 2991 
Q 1406 3038 1543 3061 
Q 1681 3084 1819 3084 
Q 2600 3084 3056 2656 
Q 3513 2228 3513 1497 
Q 3513 744 3044 326 
Q 2575 -91 1722 -91 
Q 1428 -91 1123 -41 
Q 819 9 494 109 
L 494 744 
Q 775 591 1075 516 
Q 1375 441 1709 441 
Q 2250 441 2565 725 
Q 2881 1009 2881 1497 
Q 2881 1984 2565 2268 
Q 2250 2553 1709 2553 
Q 1456 2553 1204 2497 
Q 953 2441 691 2322 
L 691 4666 
z
" transform="scale(0.015625)"/>
       </defs>
       <use xlink:href="#DejaVuSans-31"/>
       <use xlink:href="#DejaVuSans-35" x="63.623047"/>
       <use xlink:href="#DejaVuSans-30" x="127.246094"/>
      </g>
     </g>
    </g>
    <g id="ytick_3">
     <g id="line2d_9">
      <g>
       <use xlink:href="#m89bbe70468" x="57.6" y="187.968" style="stroke: #000000; stroke-width: 0.8"/>
      </g>
     </g>
     <g id="text_10">
      <!-- 160 -->
      <g transform="translate(31.5125 191.767219) scale(0.1 -0.1)">
       <use xlink:href="#DejaVuSans-31"/>
       <use xlink:href="#DejaVuSans-36" x="63.623047"/>
       <use xlink:href="#DejaVuSans-30" x="127.246094"/>
      </g>
     </g>
    </g>
    <g id="ytick_4">
     <g id="line2d_10">
      <g>
       <use xlink:href="#m89bbe70468" x="57.6" y="143.168" style="stroke: #000000; stroke-width: 0.8"/>
      </g>
     </g>
     <g id="text_11">
      <!-- 170 -->
      <g transform="translate(31.5125 146.967219) scale(0.1 -0.1)">
       <defs>
        <path id="DejaVuSans-37" d="M 525 4666 
L 3525 4666 
L 3525 4397 
L 1831 0 
L 1172 0 
L 2766 4134 
L 525 4134 
L 525 4666 
z
" transform="scale(0.015625)"/>
       </defs>
       <use xlink:href="#DejaVuSans-31"/>
       <use xlink:href="#DejaVuSans-37" x="63.623047"/>
       <use xlink:href="#DejaVuSans-30" x="127.246094"/>
      </g>
     </g>
    </g>
    <g id="ytick_5">
     <g id="line2d_11">
      <g>
       <use xlink:href="#m89bbe70468" x="57.6" y="98.368" style="stroke: #000000; stroke-width: 0.8"/>
      </g>
     </g>
     <g id="text_12">
      <!-- 180 -->
      <g transform="translate(31.5125 102.167219) scale(0.1 -0.1)">
       <use xlink:href="#DejaVuSans-31"/>
       <use xlink:href="#DejaVuSans-38" x="63.623047"/>
       <use xlink:href="#DejaVuSans-30" x="127.246094"/>
      </g>
     </g>
    </g>
    <g id="ytick_6">
     <g id="line2d_12">
      <g>
       <use xlink:href="#m89bbe70468" x="57.6" y="53.568" style="stroke: #000000; stroke-width: 0.8"/>
      </g>
     </g>
     <g id="text_13">
      <!-- 190 -->
      <g transform="translate(31.5125 57.367219) scale(0.1 -0.1)">
       <defs>
        <path id="DejaVuSans-39" d="M 703 97 
L 703 672 
Q 941 559 1184 500 
Q 1428 441 1663 441 
Q 2288 441 2617 861 
Q 2947 1281 2994 2138 
Q 2813 1869 2534 1725 
Q 2256 1581 1919 1581 
Q 1219 1581 811 2004 
Q 403 2428 403 3163 
Q 403 3881 828 4315 
Q 1253 4750 1959 4750 
Q 2769 4750 3195 4129 
Q 3622 3509 3622 2328 
Q 3622 1225 3098 567 
Q 2575 -91 1691 -91 
Q 1453 -91 1209 -44 
Q 966 3 703 97 
z
M 1959 2075 
Q 2384 2075 2632 2365 
Q 2881 2656 2881 3163 
Q 2881 3666 2632 3958 
Q 2384 4250 1959 4250 
Q 1534 4250 1286 3958 
Q 1038 3666 1038 3163 
Q 1038 2656 1286 2365 
Q 1534 2075 1959 2075 
z
" transform="scale(0.015625)"/>
       </defs>
       <use xlink:href="#DejaVuSans-31"/>
       <use xlink:href="#DejaVuSans-39" x="63.623047"/>
       <use xlink:href="#DejaVuSans-30" x="127.246094"/>
      </g>
     </g>
    </g>
    <g id="text_14">
     <!-- Cycles -->
     <g transform="translate(25.432812 190.798312) rotate(-90) scale(0.1 -0.1)">
      <defs>
       <path id="DejaVuSans-43" d="M 4122 4306 
L 4122 3641 
Q 3803 3938 3442 4084 
Q 3081 4231 2675 4231 
Q 1875 4231 1450 3742 
Q 1025 3253 1025 2328 
Q 1025 1406 1450 917 
Q 1875 428 2675 428 
Q 3081 428 3442 575 
Q 3803 722 4122 1019 
L 4122 359 
Q 3791 134 3420 21 
Q 3050 -91 2638 -91 
Q 1578 -91 968 557 
Q 359 1206 359 2328 
Q 359 3453 968 4101 
Q 1578 4750 2638 4750 
Q 3056 4750 3426 4639 
Q 3797 4528 4122 4306 
z
" transform="scale(0.015625)"/>
       <path id="DejaVuSans-79" d="M 2059 -325 
Q 1816 -950 1584 -1140 
Q 1353 -1331 966 -1331 
L 506 -1331 
L 506 -850 
L 844 -850 
Q 1081 -850 1212 -737 
Q 1344 -625 1503 -206 
L 1606 56 
L 191 3500 
L 800 3500 
L 1894 763 
L 2988 3500 
L 3597 3500 
L 2059 -325 
z
" transform="scale(0.015625)"/>
       <path id="DejaVuSans-63" d="M 3122 3366 
L 3122 2828 
Q 2878 2963 2633 3030 
Q 2388 3097 2138 3097 
Q 1578 3097 1268 2742 
Q 959 2388 959 1747 
Q 959 1106 1268 751 
Q 1578 397 2138 397 
Q 2388 397 2633 464 
Q 2878 531 3122 666 
L 3122 134 
Q 2881 22 2623 -34 
Q 2366 -91 2075 -91 
Q 1284 -91 818 406 
Q 353 903 353 1747 
Q 353 2603 823 3093 
Q 1294 3584 2113 3584 
Q 2378 3584 2631 3529 
Q 2884 3475 3122 3366 
z
" transform="scale(0.015625)"/>
       <path id="DejaVuSans-6c" d="M 603 4863 
L 1178 4863 
L 1178 0 
L 603 0 
L 603 4863 
z
" transform="scale(0.015625)"/>
       <path id="DejaVuSans-65" d="M 3597 1894 
L 3597 1613 
L 953 1613 
Q 991 1019 1311 708 
Q 1631 397 2203 397 
Q 2534 397 2845 478 
Q 3156 559 3463 722 
L 3463 178 
Q 3153 47 2828 -22 
Q 2503 -91 2169 -91 
Q 1331 -91 842 396 
Q 353 884 353 1716 
Q 353 2575 817 3079 
Q 1281 3584 2069 3584 
Q 2775 3584 3186 3129 
Q 3597 2675 3597 1894 
z
M 3022 2063 
Q 3016 2534 2758 2815 
Q 2500 3097 2075 3097 
Q 1594 3097 1305 2825 
Q 1016 2553 972 2059 
L 3022 2063 
z
" transform="scale(0.015625)"/>
       <path id="DejaVuSans-73" d="M 2834 3397 
L 2834 2853 
Q 2591 2978 2328 3040 
Q 2066 3103 1784 3103 
Q 1356 3103 1142 2972 
Q 928 2841 928 2578 
Q 928 2378 1081 2264 
Q 1234 2150 1697 2047 
L 1894 2003 
Q 2506 1872 2764 1633 
Q 3022 1394 3022 966 
Q 3022 478 2636 193 
Q 2250 -91 1575 -91 
Q 1294 -91 989 -36 
Q 684 19 347 128 
L 347 722 
Q 666 556 975 473 
Q 1284 391 1588 391 
Q 1994 391 2212 530 
Q 2431 669 2431 922 
Q 2431 1156 2273 1281 
Q 2116 1406 1581 1522 
L 1381 1569 
Q 847 1681 609 1914 
Q 372 2147 372 2553 
Q 372 3047 722 3315 
Q 1072 3584 1716 3584 
Q 2034 3584 2315 3537 
Q 2597 3491 2834 3397 
z
" transform="scale(0.015625)"/>
      </defs>
      <use xlink:href="#DejaVuSans-43"/>
      <use xlink:href="#DejaVuSans-79" x="69.824219"/>
      <use xlink:href="#DejaVuSans-63" x="129.003906"/>
      <use xlink:href="#DejaVuSans-6c" x="183.984375"/>
      <use xlink:href="#DejaVuSans-65" x="211.767578"/>
      <use xlink:href="#DejaVuSans-73" x="273.291016"/>
     </g>
    </g>
   </g>
   <g id="line2d_13">
    <path d="M 73.832727 53.568 
L 74.149773 53.568 
L 74.466818 187.968 
L 75.417955 187.968 
L 75.735 196.928 
L 77.954318 196.928 
L 78.588409 187.968 
L 78.905455 187.968 
L 79.2225 196.928 
L 79.539545 196.928 
L 79.856591 187.968 
L 80.173636 187.968 
L 80.490682 196.928 
L 81.441818 196.928 
L 81.758864 192.448 
L 82.075909 196.928 
L 82.392955 205.888 
L 82.71 205.888 
L 83.027045 196.928 
L 84.612273 196.928 
L 84.929318 201.408 
L 85.246364 201.408 
L 85.563409 187.968 
L 86.1975 187.968 
L 86.514545 201.408 
L 86.831591 187.968 
L 88.099773 187.968 
L 88.416818 196.928 
L 88.733864 187.968 
L 89.050909 187.968 
L 89.367955 183.488 
L 89.685 174.528 
L 90.002045 174.528 
L 90.319091 196.928 
L 91.587273 196.928 
L 91.904318 201.408 
L 92.221364 201.408 
L 92.538409 192.448 
L 92.855455 192.448 
L 93.1725 196.928 
L 93.806591 196.928 
L 94.123636 192.448 
L 94.440682 179.008 
L 94.757727 179.008 
L 95.074773 187.968 
L 95.391818 201.408 
L 95.708864 201.408 
L 96.025909 120.768 
L 96.342955 120.768 
L 96.66 196.928 
L 96.977045 201.408 
L 97.611136 192.448 
L 97.928182 192.448 
L 98.245227 196.928 
L 99.513409 196.928 
L 99.830455 192.448 
L 100.1475 196.928 
L 101.415682 196.928 
L 101.732727 201.408 
L 102.049773 201.408 
L 102.366818 187.968 
L 102.683864 187.968 
L 103.000909 196.928 
L 103.635 196.928 
L 103.952045 192.448 
L 104.269091 192.448 
L 104.586136 187.968 
L 104.903182 187.968 
L 105.220227 196.928 
L 106.488409 196.928 
L 106.805455 187.968 
L 107.1225 187.968 
L 107.439545 196.928 
L 107.756591 196.928 
L 108.073636 201.408 
L 108.707727 201.408 
L 109.024773 196.928 
L 109.975909 196.928 
L 110.292955 187.968 
L 110.61 187.968 
L 110.927045 205.888 
L 111.244091 205.888 
L 111.878182 187.968 
L 112.195227 196.928 
L 115.365682 196.928 
L 115.682727 187.968 
L 115.999773 205.888 
L 116.316818 196.928 
L 116.633864 196.928 
L 116.950909 187.968 
L 118.219091 187.968 
L 118.536136 196.928 
L 118.853182 196.928 
L 119.170227 192.448 
L 119.487273 192.448 
L 119.804318 196.928 
L 120.121364 196.928 
L 120.438409 187.968 
L 120.755455 187.968 
L 121.0725 196.928 
L 121.389545 196.928 
L 121.706591 192.448 
L 122.023636 192.448 
L 122.340682 187.968 
L 122.657727 196.928 
L 122.974773 187.968 
L 123.291818 201.408 
L 124.56 201.408 
L 124.877045 187.968 
L 126.462273 187.968 
L 126.779318 196.928 
L 127.413409 196.928 
L 127.730455 183.488 
L 128.0475 179.008 
L 128.681591 179.008 
L 128.998636 196.928 
L 129.315682 196.928 
L 129.632727 187.968 
L 129.949773 187.968 
L 130.266818 196.928 
L 132.169091 196.928 
L 132.486136 187.968 
L 132.803182 196.928 
L 133.754318 196.928 
L 134.071364 187.968 
L 134.388409 187.968 
L 134.705455 183.488 
L 135.0225 187.968 
L 135.973636 187.968 
L 136.290682 192.448 
L 136.607727 201.408 
L 136.924773 192.448 
L 137.241818 187.968 
L 137.558864 187.968 
L 138.192955 196.928 
L 138.51 192.448 
L 138.827045 196.928 
L 139.144091 187.968 
L 139.461136 196.928 
L 140.412273 196.928 
L 140.729318 187.968 
L 141.046364 196.928 
L 141.680455 196.928 
L 141.9975 187.968 
L 142.631591 187.968 
L 142.948636 196.928 
L 143.899773 196.928 
L 144.216818 205.888 
L 144.533864 196.928 
L 144.850909 196.928 
L 145.167955 192.448 
L 146.119091 192.448 
L 146.436136 187.968 
L 146.753182 192.448 
L 147.070227 187.968 
L 147.704318 187.968 
L 148.021364 205.888 
L 148.338409 205.888 
L 148.655455 187.968 
L 149.289545 187.968 
L 149.606591 196.928 
L 149.923636 174.528 
L 150.240682 196.928 
L 150.557727 196.928 
L 150.874773 201.408 
L 151.191818 196.928 
L 151.508864 196.928 
L 151.825909 187.968 
L 152.142955 196.928 
L 152.46 187.968 
L 153.094091 187.968 
L 153.411136 205.888 
L 153.728182 205.888 
L 154.362273 187.968 
L 154.679318 187.968 
L 154.996364 192.448 
L 155.313409 192.448 
L 155.630455 187.968 
L 155.9475 187.968 
L 156.264545 192.448 
L 156.898636 192.448 
L 157.215682 196.928 
L 157.849773 196.928 
L 158.166818 192.448 
L 158.483864 196.928 
L 159.117955 187.968 
L 159.435 187.968 
L 159.752045 196.928 
L 160.703182 196.928 
L 161.020227 192.448 
L 161.654318 192.448 
L 161.971364 187.968 
L 163.556591 187.968 
L 163.873636 205.888 
L 164.190682 187.968 
L 165.141818 187.968 
L 165.458864 196.928 
L 165.775909 201.408 
L 166.092955 196.928 
L 166.727045 196.928 
L 167.044091 192.448 
L 167.678182 192.448 
L 167.995227 187.968 
L 168.312273 196.928 
L 168.629318 196.928 
L 168.946364 201.408 
L 169.263409 201.408 
L 169.580455 196.928 
L 169.8975 196.928 
L 170.214545 187.968 
L 170.531591 196.928 
L 170.848636 187.968 
L 171.165682 196.928 
L 171.482727 192.448 
L 171.799773 196.928 
L 172.116818 192.448 
L 172.433864 196.928 
L 172.750909 187.968 
L 173.067955 196.928 
L 173.385 187.968 
L 173.702045 196.928 
L 174.653182 196.928 
L 174.970227 187.968 
L 175.604318 187.968 
L 175.921364 192.448 
L 176.8725 192.448 
L 177.189545 187.968 
L 177.823636 187.968 
L 178.140682 201.408 
L 178.457727 201.408 
L 178.774773 205.888 
L 179.408864 205.888 
L 179.725909 192.448 
L 180.36 192.448 
L 180.677045 196.928 
L 181.945227 196.928 
L 182.262273 187.968 
L 182.579318 196.928 
L 182.896364 183.488 
L 183.213409 196.928 
L 183.530455 187.968 
L 184.164545 187.968 
L 184.481591 179.008 
L 185.432727 179.008 
L 185.749773 187.968 
L 186.383864 187.968 
L 186.700909 196.928 
L 189.871364 196.928 
L 190.188409 201.408 
L 190.505455 201.408 
L 191.456591 187.968 
L 192.090682 196.928 
L 192.724773 196.928 
L 193.041818 205.888 
L 193.675909 205.888 
L 193.992955 201.408 
L 194.31 187.968 
L 194.627045 201.408 
L 194.944091 196.928 
L 197.480455 196.928 
L 197.7975 187.968 
L 198.748636 187.968 
L 199.065682 196.928 
L 201.285 196.928 
L 201.602045 187.968 
L 201.919091 196.928 
L 202.236136 187.968 
L 204.455455 187.968 
L 205.089545 205.888 
L 205.723636 205.888 
L 206.040682 187.968 
L 207.308864 187.968 
L 207.625909 196.928 
L 209.845227 196.928 
L 210.162273 205.888 
L 210.479318 201.408 
L 210.796364 201.408 
L 211.113409 196.928 
L 211.430455 187.968 
L 211.7475 187.968 
L 212.064545 75.968 
L 212.381591 75.968 
L 212.698636 196.928 
L 213.332727 196.928 
L 213.649773 205.888 
L 213.966818 205.888 
L 214.283864 196.928 
L 215.235 196.928 
L 215.869091 205.888 
L 216.503182 196.928 
L 217.454318 196.928 
L 217.771364 201.408 
L 218.088409 201.408 
L 218.405455 205.888 
L 218.7225 205.888 
L 219.356591 196.928 
L 220.307727 196.928 
L 220.941818 205.888 
L 221.258864 205.888 
L 221.575909 196.928 
L 222.21 196.928 
L 222.527045 201.408 
L 223.161136 201.408 
L 223.478182 192.448 
L 223.795227 187.968 
L 224.112273 192.448 
L 224.429318 187.968 
L 224.746364 196.928 
L 225.6975 196.928 
L 226.331591 187.968 
L 226.965682 187.968 
L 227.282727 196.928 
L 227.599773 187.968 
L 227.916818 196.928 
L 228.233864 187.968 
L 229.185 187.968 
L 229.502045 196.928 
L 229.819091 187.968 
L 231.087273 187.968 
L 231.404318 196.928 
L 232.038409 196.928 
L 232.355455 187.968 
L 233.306591 187.968 
L 233.623636 192.448 
L 233.940682 187.968 
L 234.257727 192.448 
L 234.574773 187.968 
L 235.208864 205.888 
L 235.842955 205.888 
L 236.477045 187.968 
L 236.794091 187.968 
L 237.111136 179.008 
L 237.428182 179.008 
L 238.062273 196.928 
L 238.379318 196.928 
L 238.696364 187.968 
L 239.330455 187.968 
L 239.6475 201.408 
L 239.964545 201.408 
L 240.281591 192.448 
L 240.915682 192.448 
L 241.232727 201.408 
L 241.549773 187.968 
L 243.769091 187.968 
L 244.086136 192.448 
L 244.403182 205.888 
L 244.720227 192.448 
L 245.037273 187.968 
L 245.354318 71.488 
L 245.671364 71.488 
L 245.988409 187.968 
L 246.305455 196.928 
L 246.939545 196.928 
L 247.256591 187.968 
L 247.890682 187.968 
L 248.207727 196.928 
L 252.012273 196.928 
L 252.329318 187.968 
L 253.280455 187.968 
L 253.914545 205.888 
L 254.231591 205.888 
L 254.548636 277.568 
L 255.182727 295.488 
L 255.499773 286.528 
L 255.816818 196.928 
L 257.085 196.928 
L 257.719091 187.968 
L 258.987273 187.968 
L 259.304318 196.928 
L 260.255455 196.928 
L 260.5725 187.968 
L 260.889545 196.928 
L 261.206591 187.968 
L 262.474773 187.968 
L 262.791818 183.488 
L 263.108864 187.968 
L 264.06 187.968 
L 264.377045 205.888 
L 264.694091 205.888 
L 265.011136 196.928 
L 265.328182 196.928 
L 265.645227 187.968 
L 265.962273 196.928 
L 266.279318 187.968 
L 267.230455 187.968 
L 267.5475 192.448 
L 268.181591 192.448 
L 268.498636 196.928 
L 268.815682 196.928 
L 269.132727 187.968 
L 269.449773 187.968 
L 270.083864 196.928 
L 270.717955 196.928 
L 271.035 187.968 
L 272.303182 187.968 
L 272.620227 192.448 
L 272.937273 192.448 
L 273.571364 183.488 
L 273.888409 187.968 
L 274.205455 187.968 
L 274.5225 196.928 
L 275.156591 196.928 
L 275.790682 187.968 
L 278.327045 187.968 
L 278.644091 196.928 
L 278.961136 192.448 
L 279.278182 192.448 
L 279.595227 187.968 
L 282.131591 187.968 
L 282.448636 196.928 
L 282.765682 196.928 
L 283.082727 187.968 
L 283.716818 187.968 
L 284.033864 196.928 
L 284.350909 187.968 
L 284.985 187.968 
L 285.302045 196.928 
L 285.936136 196.928 
L 286.253182 187.968 
L 286.887273 187.968 
L 287.204318 196.928 
L 287.521364 187.968 
L 289.106591 187.968 
L 289.423636 196.928 
L 289.740682 196.928 
L 290.057727 187.968 
L 291.325909 187.968 
L 291.642955 196.928 
L 292.277045 196.928 
L 292.594091 205.888 
L 292.911136 205.888 
L 293.545227 187.968 
L 293.862273 187.968 
L 294.179318 196.928 
L 294.496364 196.928 
L 294.813409 187.968 
L 296.081591 187.968 
L 296.715682 196.928 
L 297.032727 192.448 
L 297.349773 196.928 
L 297.666818 183.488 
L 297.983864 179.008 
L 298.300909 179.008 
L 298.935 187.968 
L 299.886136 187.968 
L 300.203182 201.408 
L 300.520227 201.408 
L 300.837273 205.888 
L 301.154318 196.928 
L 302.739545 196.928 
L 303.056591 201.408 
L 303.373636 201.408 
L 303.690682 196.928 
L 306.861136 196.928 
L 307.178182 187.968 
L 307.495227 187.968 
L 307.812273 179.008 
L 308.129318 179.008 
L 308.763409 196.928 
L 309.080455 187.968 
L 309.714545 187.968 
L 310.031591 196.928 
L 311.616818 196.928 
L 311.933864 183.488 
L 312.250909 196.928 
L 312.567955 192.448 
L 312.885 201.408 
L 313.519091 201.408 
L 313.836136 196.928 
L 314.470227 196.928 
L 314.787273 192.448 
L 315.104318 192.448 
L 315.421364 187.968 
L 316.3725 201.408 
L 316.689545 196.928 
L 317.006591 196.928 
L 317.323636 187.968 
L 317.640682 196.928 
L 318.908864 196.928 
L 319.225909 201.408 
L 319.542955 196.928 
L 320.177045 196.928 
L 320.494091 192.448 
L 320.811136 196.928 
L 321.445227 187.968 
L 322.079318 187.968 
L 322.396364 201.408 
L 322.713409 192.448 
L 323.3475 192.448 
L 323.664545 196.928 
L 327.469091 196.928 
L 327.786136 187.968 
L 328.420227 187.968 
L 328.737273 201.408 
L 329.054318 201.408 
L 329.371364 196.928 
L 330.3225 196.928 
L 330.639545 201.408 
L 330.956591 187.968 
L 331.273636 192.448 
L 331.907727 192.448 
L 332.224773 196.928 
L 335.078182 196.928 
L 335.712273 205.888 
L 336.029318 205.888 
L 336.346364 196.928 
L 337.2975 196.928 
L 337.614545 187.968 
L 337.931591 187.968 
L 338.248636 196.928 
L 342.370227 196.928 
L 342.687273 187.968 
L 343.638409 187.968 
L 343.955455 196.928 
L 344.589545 196.928 
L 344.906591 187.968 
L 345.223636 196.928 
L 345.540682 192.448 
L 345.857727 196.928 
L 346.174773 192.448 
L 346.491818 196.928 
L 347.442955 196.928 
L 347.76 192.448 
L 348.711136 192.448 
L 349.028182 187.968 
L 349.345227 196.928 
L 349.979318 196.928 
L 350.296364 187.968 
L 351.564545 187.968 
L 351.881591 196.928 
L 353.149773 196.928 
L 353.466818 201.408 
L 353.783864 201.408 
L 354.100909 196.928 
L 356.954318 196.928 
L 357.271364 187.968 
L 357.905455 187.968 
L 358.2225 196.928 
L 358.539545 196.928 
L 358.856591 201.408 
L 359.173636 196.928 
L 360.441818 196.928 
L 360.758864 187.968 
L 361.392955 187.968 
L 361.71 196.928 
L 362.027045 187.968 
L 362.344091 196.928 
L 363.929318 196.928 
L 364.246364 205.888 
L 364.563409 187.968 
L 364.880455 196.928 
L 365.1975 192.448 
L 365.831591 192.448 
L 366.148636 201.408 
L 366.465682 205.888 
L 367.099773 205.888 
L 367.733864 196.928 
L 368.050909 196.928 
L 368.367955 187.968 
L 369.319091 187.968 
L 369.636136 196.928 
L 369.953182 187.968 
L 370.270227 196.928 
L 371.855455 196.928 
L 372.1725 147.648 
L 372.489545 196.928 
L 373.757727 196.928 
L 374.074773 187.968 
L 374.391818 187.968 
L 374.708864 196.928 
L 375.025909 201.408 
L 375.342955 196.928 
L 376.611136 196.928 
L 376.928182 187.968 
L 377.245227 187.968 
L 377.562273 196.928 
L 378.196364 196.928 
L 378.513409 187.968 
L 378.830455 196.928 
L 380.415682 196.928 
L 380.732727 187.968 
L 381.683864 187.968 
L 382.317955 196.928 
L 382.952045 196.928 
L 383.269091 187.968 
L 385.488409 187.968 
L 385.805455 196.928 
L 386.1225 196.928 
L 386.439545 187.968 
L 386.756591 187.968 
L 387.073636 196.928 
L 389.292955 196.928 
L 389.61 187.968 
L 390.244091 187.968 
L 390.561136 196.928 
L 390.878182 192.448 
L 391.195227 196.928 
L 392.463409 196.928 
L 392.780455 187.968 
L 393.414545 187.968 
L 393.731591 196.928 
L 394.365682 196.928 
L 394.682727 187.968 
L 394.999773 183.488 
L 395.316818 183.488 
L 395.633864 187.968 
L 397.219091 187.968 
L 397.536136 196.928 
L 398.170227 196.928 
L 398.487273 205.888 
L 398.487273 205.888 
" clip-path="url(#p6eea0e326e)" style="fill: none; stroke: #1f77b4; stroke-width: 1.5; stroke-linecap: square"/>
   </g>
   <g id="patch_3">
    <path d="M 57.6 307.584 
L 57.6 41.472 
" style="fill: none; stroke: #000000; stroke-width: 0.8; stroke-linejoin: miter; stroke-linecap: square"/>
   </g>
   <g id="patch_4">
    <path d="M 414.72 307.584 
L 414.72 41.472 
" style="fill: none; stroke: #000000; stroke-width: 0.8; stroke-linejoin: miter; stroke-linecap: square"/>
   </g>
   <g id="patch_5">
    <path d="M 57.6 307.584 
L 414.72 307.584 
" style="fill: none; stroke: #000000; stroke-width: 0.8; stroke-linejoin: miter; stroke-linecap: square"/>
   </g>
   <g id="patch_6">
    <path d="M 57.6 41.472 
L 414.72 41.472 
" style="fill: none; stroke: #000000; stroke-width: 0.8; stroke-linejoin: miter; stroke-linecap: square"/>
   </g>
   <g id="text_15">
    <!-- LEA Encryption -->
    <g transform="translate(190.801875 35.472) scale(0.12 -0.12)">
     <defs>
      <path id="DejaVuSans-4c" d="M 628 4666 
L 1259 4666 
L 1259 531 
L 3531 531 
L 3531 0 
L 628 0 
L 628 4666 
z
" transform="scale(0.015625)"/>
      <path id="DejaVuSans-45" d="M 628 4666 
L 3578 4666 
L 3578 4134 
L 1259 4134 
L 1259 2753 
L 3481 2753 
L 3481 2222 
L 1259 2222 
L 1259 531 
L 3634 531 
L 3634 0 
L 628 0 
L 628 4666 
z
" transform="scale(0.015625)"/>
      <path id="DejaVuSans-41" d="M 2188 4044 
L 1331 1722 
L 3047 1722 
L 2188 4044 
z
M 1831 4666 
L 2547 4666 
L 4325 0 
L 3669 0 
L 3244 1197 
L 1141 1197 
L 716 0 
L 50 0 
L 1831 4666 
z
" transform="scale(0.015625)"/>
      <path id="DejaVuSans-20" transform="scale(0.015625)"/>
      <path id="DejaVuSans-72" d="M 2631 2963 
Q 2534 3019 2420 3045 
Q 2306 3072 2169 3072 
Q 1681 3072 1420 2755 
Q 1159 2438 1159 1844 
L 1159 0 
L 581 0 
L 581 3500 
L 1159 3500 
L 1159 2956 
Q 1341 3275 1631 3429 
Q 1922 3584 2338 3584 
Q 2397 3584 2469 3576 
Q 2541 3569 2628 3553 
L 2631 2963 
z
" transform="scale(0.015625)"/>
      <path id="DejaVuSans-70" d="M 1159 525 
L 1159 -1331 
L 581 -1331 
L 581 3500 
L 1159 3500 
L 1159 2969 
Q 1341 3281 1617 3432 
Q 1894 3584 2278 3584 
Q 2916 3584 3314 3078 
Q 3713 2572 3713 1747 
Q 3713 922 3314 415 
Q 2916 -91 2278 -91 
Q 1894 -91 1617 61 
Q 1341 213 1159 525 
z
M 3116 1747 
Q 3116 2381 2855 2742 
Q 2594 3103 2138 3103 
Q 1681 3103 1420 2742 
Q 1159 2381 1159 1747 
Q 1159 1113 1420 752 
Q 1681 391 2138 391 
Q 2594 391 2855 752 
Q 3116 1113 3116 1747 
z
" transform="scale(0.015625)"/>
      <path id="DejaVuSans-74" d="M 1172 4494 
L 1172 3500 
L 2356 3500 
L 2356 3053 
L 1172 3053 
L 1172 1153 
Q 1172 725 1289 603 
Q 1406 481 1766 481 
L 2356 481 
L 2356 0 
L 1766 0 
Q 1100 0 847 248 
Q 594 497 594 1153 
L 594 3053 
L 172 3053 
L 172 3500 
L 594 3500 
L 594 4494 
L 1172 4494 
z
" transform="scale(0.015625)"/>
      <path id="DejaVuSans-69" d="M 603 3500 
L 1178 3500 
L 1178 0 
L 603 0 
L 603 3500 
z
M 603 4863 
L 1178 4863 
L 1178 4134 
L 603 4134 
L 603 4863 
z
" transform="scale(0.015625)"/>
      <path id="DejaVuSans-6f" d="M 1959 3097 
Q 1497 3097 1228 2736 
Q 959 2375 959 1747 
Q 959 1119 1226 758 
Q 1494 397 1959 397 
Q 2419 397 2687 759 
Q 2956 1122 2956 1747 
Q 2956 2369 2687 2733 
Q 2419 3097 1959 3097 
z
M 1959 3584 
Q 2709 3584 3137 3096 
Q 3566 2609 3566 1747 
Q 3566 888 3137 398 
Q 2709 -91 1959 -91 
Q 1206 -91 779 398 
Q 353 888 353 1747 
Q 353 2609 779 3096 
Q 1206 3584 1959 3584 
z
" transform="scale(0.015625)"/>
     </defs>
     <use xlink:href="#DejaVuSans-4c"/>
     <use xlink:href="#DejaVuSans-45" x="55.712891"/>
     <use xlink:href="#DejaVuSans-41" x="118.896484"/>
     <use xlink:href="#DejaVuSans-20" x="187.304688"/>
     <use xlink:href="#DejaVuSans-45" x="219.091797"/>
     <use xlink:href="#DejaVuSans-6e" x="282.275391"/>
     <use xlink:href="#DejaVuSans-63" x="345.654297"/>
     <use xlink:href="#DejaVuSans-72" x="400.634766"/>
     <use xlink:href="#DejaVuSans-79" x="441.748047"/>
     <use xlink:href="#DejaVuSans-70" x="500.927734"/>
     <use xlink:href="#DejaVuSans-74" x="564.404297"/>
     <use xlink:href="#DejaVuSans-69" x="603.613281"/>
     <use xlink:href="#DejaVuSans-6f" x="631.396484"/>
     <use xlink:href="#DejaVuSans-6e" x="692.578125"/>
    </g>
   </g>
   <g id="legend_1">
    <g id="patch_7">
     <path d="M 118.502812 64.150125 
L 407.72 64.150125 
Q 409.72 64.150125 409.72 62.150125 
L 409.72 48.472 
Q 409.72 46.472 407.72 46.472 
L 118.502812 46.472 
Q 116.502812 46.472 116.502812 48.472 
L 116.502812 62.150125 
Q 116.502812 64.150125 118.502812 64.150125 
z
" style="fill: #ffffff; opacity: 0.8; stroke: #cccccc; stroke-linejoin: miter"/>
    </g>
    <g id="line2d_14">
     <path d="M 120.502812 54.570438 
L 130.502812 54.570438 
L 140.502812 54.570438 
" style="fill: none; stroke: #1f77b4; stroke-width: 1.5; stroke-linecap: square"/>
    </g>
    <g id="text_16">
     <!-- Median filtered encryption algorithm cycles per run -->
     <g transform="translate(148.502812 58.070438) scale(0.1 -0.1)">
      <defs>
       <path id="DejaVuSans-4d" d="M 628 4666 
L 1569 4666 
L 2759 1491 
L 3956 4666 
L 4897 4666 
L 4897 0 
L 4281 0 
L 4281 4097 
L 3078 897 
L 2444 897 
L 1241 4097 
L 1241 0 
L 628 0 
L 628 4666 
z
" transform="scale(0.015625)"/>
       <path id="DejaVuSans-64" d="M 2906 2969 
L 2906 4863 
L 3481 4863 
L 3481 0 
L 2906 0 
L 2906 525 
Q 2725 213 2448 61 
Q 2172 -91 1784 -91 
Q 1150 -91 751 415 
Q 353 922 353 1747 
Q 353 2572 751 3078 
Q 1150 3584 1784 3584 
Q 2172 3584 2448 3432 
Q 2725 3281 2906 2969 
z
M 947 1747 
Q 947 1113 1208 752 
Q 1469 391 1925 391 
Q 2381 391 2643 752 
Q 2906 1113 2906 1747 
Q 2906 2381 2643 2742 
Q 2381 3103 1925 3103 
Q 1469 3103 1208 2742 
Q 947 2381 947 1747 
z
" transform="scale(0.015625)"/>
       <path id="DejaVuSans-61" d="M 2194 1759 
Q 1497 1759 1228 1600 
Q 959 1441 959 1056 
Q 959 750 1161 570 
Q 1363 391 1709 391 
Q 2188 391 2477 730 
Q 2766 1069 2766 1631 
L 2766 1759 
L 2194 1759 
z
M 3341 1997 
L 3341 0 
L 2766 0 
L 2766 531 
Q 2569 213 2275 61 
Q 1981 -91 1556 -91 
Q 1019 -91 701 211 
Q 384 513 384 1019 
Q 384 1609 779 1909 
Q 1175 2209 1959 2209 
L 2766 2209 
L 2766 2266 
Q 2766 2663 2505 2880 
Q 2244 3097 1772 3097 
Q 1472 3097 1187 3025 
Q 903 2953 641 2809 
L 641 3341 
Q 956 3463 1253 3523 
Q 1550 3584 1831 3584 
Q 2591 3584 2966 3190 
Q 3341 2797 3341 1997 
z
" transform="scale(0.015625)"/>
       <path id="DejaVuSans-66" d="M 2375 4863 
L 2375 4384 
L 1825 4384 
Q 1516 4384 1395 4259 
Q 1275 4134 1275 3809 
L 1275 3500 
L 2222 3500 
L 2222 3053 
L 1275 3053 
L 1275 0 
L 697 0 
L 697 3053 
L 147 3053 
L 147 3500 
L 697 3500 
L 697 3744 
Q 697 4328 969 4595 
Q 1241 4863 1831 4863 
L 2375 4863 
z
" transform="scale(0.015625)"/>
       <path id="DejaVuSans-67" d="M 2906 1791 
Q 2906 2416 2648 2759 
Q 2391 3103 1925 3103 
Q 1463 3103 1205 2759 
Q 947 2416 947 1791 
Q 947 1169 1205 825 
Q 1463 481 1925 481 
Q 2391 481 2648 825 
Q 2906 1169 2906 1791 
z
M 3481 434 
Q 3481 -459 3084 -895 
Q 2688 -1331 1869 -1331 
Q 1566 -1331 1297 -1286 
Q 1028 -1241 775 -1147 
L 775 -588 
Q 1028 -725 1275 -790 
Q 1522 -856 1778 -856 
Q 2344 -856 2625 -561 
Q 2906 -266 2906 331 
L 2906 616 
Q 2728 306 2450 153 
Q 2172 0 1784 0 
Q 1141 0 747 490 
Q 353 981 353 1791 
Q 353 2603 747 3093 
Q 1141 3584 1784 3584 
Q 2172 3584 2450 3431 
Q 2728 3278 2906 2969 
L 2906 3500 
L 3481 3500 
L 3481 434 
z
" transform="scale(0.015625)"/>
       <path id="DejaVuSans-68" d="M 3513 2113 
L 3513 0 
L 2938 0 
L 2938 2094 
Q 2938 2591 2744 2837 
Q 2550 3084 2163 3084 
Q 1697 3084 1428 2787 
Q 1159 2491 1159 1978 
L 1159 0 
L 581 0 
L 581 4863 
L 1159 4863 
L 1159 2956 
Q 1366 3272 1645 3428 
Q 1925 3584 2291 3584 
Q 2894 3584 3203 3211 
Q 3513 2838 3513 2113 
z
" transform="scale(0.015625)"/>
       <path id="DejaVuSans-6d" d="M 3328 2828 
Q 3544 3216 3844 3400 
Q 4144 3584 4550 3584 
Q 5097 3584 5394 3201 
Q 5691 2819 5691 2113 
L 5691 0 
L 5113 0 
L 5113 2094 
Q 5113 2597 4934 2840 
Q 4756 3084 4391 3084 
Q 3944 3084 3684 2787 
Q 3425 2491 3425 1978 
L 3425 0 
L 2847 0 
L 2847 2094 
Q 2847 2600 2669 2842 
Q 2491 3084 2119 3084 
Q 1678 3084 1418 2786 
Q 1159 2488 1159 1978 
L 1159 0 
L 581 0 
L 581 3500 
L 1159 3500 
L 1159 2956 
Q 1356 3278 1631 3431 
Q 1906 3584 2284 3584 
Q 2666 3584 2933 3390 
Q 3200 3197 3328 2828 
z
" transform="scale(0.015625)"/>
       <path id="DejaVuSans-75" d="M 544 1381 
L 544 3500 
L 1119 3500 
L 1119 1403 
Q 1119 906 1312 657 
Q 1506 409 1894 409 
Q 2359 409 2629 706 
Q 2900 1003 2900 1516 
L 2900 3500 
L 3475 3500 
L 3475 0 
L 2900 0 
L 2900 538 
Q 2691 219 2414 64 
Q 2138 -91 1772 -91 
Q 1169 -91 856 284 
Q 544 659 544 1381 
z
M 1991 3584 
L 1991 3584 
z
" transform="scale(0.015625)"/>
      </defs>
      <use xlink:href="#DejaVuSans-4d"/>
      <use xlink:href="#DejaVuSans-65" x="86.279297"/>
      <use xlink:href="#DejaVuSans-64" x="147.802734"/>
      <use xlink:href="#DejaVuSans-69" x="211.279297"/>
      <use xlink:href="#DejaVuSans-61" x="239.0625"/>
      <use xlink:href="#DejaVuSans-6e" x="300.341797"/>
      <use xlink:href="#DejaVuSans-20" x="363.720703"/>
      <use xlink:href="#DejaVuSans-66" x="395.507812"/>
      <use xlink:href="#DejaVuSans-69" x="430.712891"/>
      <use xlink:href="#DejaVuSans-6c" x="458.496094"/>
      <use xlink:href="#DejaVuSans-74" x="486.279297"/>
      <use xlink:href="#DejaVuSans-65" x="525.488281"/>
      <use xlink:href="#DejaVuSans-72" x="587.011719"/>
      <use xlink:href="#DejaVuSans-65" x="625.875"/>
      <use xlink:href="#DejaVuSans-64" x="687.398438"/>
      <use xlink:href="#DejaVuSans-20" x="750.875"/>
      <use xlink:href="#DejaVuSans-65" x="782.662109"/>
      <use xlink:href="#DejaVuSans-6e" x="844.185547"/>
      <use xlink:href="#DejaVuSans-63" x="907.564453"/>
      <use xlink:href="#DejaVuSans-72" x="962.544922"/>
      <use xlink:href="#DejaVuSans-79" x="1003.658203"/>
      <use xlink:href="#DejaVuSans-70" x="1062.837891"/>
      <use xlink:href="#DejaVuSans-74" x="1126.314453"/>
      <use xlink:href="#DejaVuSans-69" x="1165.523438"/>
      <use xlink:href="#DejaVuSans-6f" x="1193.306641"/>
      <use xlink:href="#DejaVuSans-6e" x="1254.488281"/>
      <use xlink:href="#DejaVuSans-20" x="1317.867188"/>
      <use xlink:href="#DejaVuSans-61" x="1349.654297"/>
      <use xlink:href="#DejaVuSans-6c" x="1410.933594"/>
      <use xlink:href="#DejaVuSans-67" x="1438.716797"/>
      <use xlink:href="#DejaVuSans-6f" x="1502.193359"/>
      <use xlink:href="#DejaVuSans-72" x="1563.375"/>
      <use xlink:href="#DejaVuSans-69" x="1604.488281"/>
      <use xlink:href="#DejaVuSans-74" x="1632.271484"/>
      <use xlink:href="#DejaVuSans-68" x="1671.480469"/>
      <use xlink:href="#DejaVuSans-6d" x="1734.859375"/>
      <use xlink:href="#DejaVuSans-20" x="1832.271484"/>
      <use xlink:href="#DejaVuSans-63" x="1864.058594"/>
      <use xlink:href="#DejaVuSans-79" x="1919.039062"/>
      <use xlink:href="#DejaVuSans-63" x="1978.21875"/>
      <use xlink:href="#DejaVuSans-6c" x="2033.199219"/>
      <use xlink:href="#DejaVuSans-65" x="2060.982422"/>
      <use xlink:href="#DejaVuSans-73" x="2122.505859"/>
      <use xlink:href="#DejaVuSans-20" x="2174.605469"/>
      <use xlink:href="#DejaVuSans-70" x="2206.392578"/>
      <use xlink:href="#DejaVuSans-65" x="2269.869141"/>
      <use xlink:href="#DejaVuSans-72" x="2331.392578"/>
      <use xlink:href="#DejaVuSans-20" x="2372.505859"/>
      <use xlink:href="#DejaVuSans-72" x="2404.292969"/>
      <use xlink:href="#DejaVuSans-75" x="2445.40625"/>
      <use xlink:href="#DejaVuSans-6e" x="2508.785156"/>
     </g>
    </g>
   </g>
  </g>
 </g>
 <defs>
  <clipPath id="p6eea0e326e">
   <rect x="57.6" y="41.472" width="357.12" height="266.112"/>
  </clipPath>
 </defs>
</svg>
